<svg width="150" height="48" viewBox="0 0 150 48" fill="none" xmlns="http://www.w3.org/2000/svg">
<g clip-path="url(#clip0_310_1161)">
<rect width="150" height="48" rx="3" fill="#3C4D53"/>
<mask id="mask0_310_1161" style="mask-type:luminance" maskUnits="userSpaceOnUse" x="0" y="0" width="150" height="48">
<rect width="150" height="48" rx="3" fill="white"/>
</mask>
<g mask="url(#mask0_310_1161)">
<rect width="150" height="48" fill="#64707C"/>
<path fill-rule="evenodd" clip-rule="evenodd" d="M30.2474 12H19.7523C14.7956 12 13 13.8209 13 18.7524V29.2476C13 34.2044 14.8208 36 19.7523 36H30.2474C35.2042 36 36.9997 34.1791 36.9997 29.2476V18.7524C37.025 13.8209 35.2042 12 30.2474 12Z" fill="white"/>
<path d="M17.7544 24.0127H18.3866V27.1486H17.7544V25.8841H16.3129V27.1486H15.6807V24.0127H16.3129V25.2772H17.7544V24.0127ZM21.3455 25.8083C21.3455 26.3141 21.0926 26.5923 20.6374 26.5923C20.1822 26.5923 19.9293 26.3141 19.9293 25.783V24.0127H19.2971V25.8083C19.2971 26.6934 19.7776 27.1992 20.6374 27.1992C21.4972 27.1992 22.003 26.6934 22.003 25.783V24.0127H21.3708V25.8083H21.3455ZM28.7048 26.1623L27.9966 24.0127H27.4656L26.7575 26.1623L26.0746 24.0127H25.3918L26.4793 27.1486H27.0104L27.7185 25.0749L28.4266 27.1486H28.9577L30.0451 24.0127H29.3876L28.7048 26.1623ZM31.2084 25.8083H32.3717V25.2266H31.2084V24.5944H32.9028V24.0127H30.6015V27.1486H32.9787V26.567H31.2337V25.8083H31.2084ZM33.7121 27.1486H34.3443V24.0127H33.7121V27.1486ZM23.2422 26.4911L22.964 27.1486H22.3065L23.6721 24.0127H24.2285L25.5941 27.1486H24.9366L24.6584 26.4911H23.2422ZM23.4698 25.9347H24.4308L23.9503 24.822L23.4698 25.9347Z" fill="#64707C"/>
<path d="M25.0123 20.0168C22.8122 20.0168 21.0166 18.2212 21.0166 16.021H21.573C21.573 17.9177 23.1156 19.4604 25.0123 19.4604C26.9091 19.4604 28.4517 17.9177 28.4517 16.021H29.0081C29.0081 18.2212 27.2125 20.0168 25.0123 20.0168Z" fill="#64707C"/>
<path d="M50.0195 30.1797V38H48.9829V30.1797H50.0195ZM48.9131 28.9229C48.9131 28.7653 48.9614 28.631 49.0581 28.52C49.1584 28.409 49.3052 28.3535 49.4985 28.3535C49.6883 28.3535 49.8333 28.409 49.9336 28.52C50.0374 28.631 50.0894 28.7653 50.0894 28.9229C50.0894 29.0804 50.0374 29.2147 49.9336 29.3257C49.8333 29.4331 49.6883 29.4868 49.4985 29.4868C49.3052 29.4868 49.1584 29.4331 49.0581 29.3257C48.9614 29.2147 48.9131 29.0804 48.9131 28.9229ZM57.9204 30.1797V38H56.8784L52.9414 31.9683V38H51.9048V30.1797H52.9414L56.8945 36.2275V30.1797H57.9204ZM61.8735 38H60.2407L60.2515 37.1567H61.8735C62.4321 37.1567 62.8976 37.0404 63.27 36.8076C63.6424 36.5713 63.9217 36.2419 64.1079 35.8193C64.2977 35.3932 64.3926 34.8955 64.3926 34.3262V33.8481C64.3926 33.4006 64.3389 33.0031 64.2314 32.6558C64.124 32.3049 63.9665 32.0094 63.7588 31.7695C63.5511 31.526 63.2969 31.3416 62.9961 31.2163C62.6989 31.091 62.3569 31.0283 61.9702 31.0283H60.2085V30.1797H61.9702C62.4823 30.1797 62.9495 30.2656 63.3721 30.4375C63.7946 30.6058 64.158 30.8511 64.4624 31.1733C64.7703 31.492 65.0067 31.8787 65.1714 32.3335C65.3361 32.7847 65.4185 33.2931 65.4185 33.8589V34.3262C65.4185 34.8919 65.3361 35.4022 65.1714 35.8569C65.0067 36.3081 64.7686 36.693 64.457 37.0117C64.1491 37.3304 63.7767 37.5757 63.3398 37.7476C62.9066 37.9159 62.4178 38 61.8735 38ZM60.7939 30.1797V38H59.7573V30.1797H60.7939ZM68.0879 30.1797V38H67.0513V30.1797H68.0879ZM66.9814 28.9229C66.9814 28.7653 67.0298 28.631 67.1265 28.52C67.2267 28.409 67.3735 28.3535 67.5669 28.3535C67.7567 28.3535 67.9017 28.409 68.002 28.52C68.1058 28.631 68.1577 28.7653 68.1577 28.9229C68.1577 29.0804 68.1058 29.2147 68.002 29.3257C67.9017 29.4331 67.7567 29.4868 67.5669 29.4868C67.3735 29.4868 67.2267 29.4331 67.1265 29.3257C67.0298 29.2147 66.9814 29.0804 66.9814 28.9229ZM69.9731 30.1797H72.562C73.1493 30.1797 73.6452 30.2692 74.0498 30.4482C74.458 30.6273 74.7677 30.8923 74.979 31.2432C75.1938 31.5905 75.3013 32.0184 75.3013 32.5269C75.3013 32.8849 75.2279 33.2126 75.0811 33.5098C74.9378 33.8034 74.7301 34.054 74.458 34.2617C74.1895 34.4658 73.8672 34.618 73.4912 34.7183L73.2012 34.8311H70.7681L70.7573 33.9878H72.5942C72.9666 33.9878 73.2764 33.9233 73.5234 33.7944C73.7705 33.6619 73.9567 33.4847 74.082 33.2627C74.2074 33.0407 74.27 32.7954 74.27 32.5269C74.27 32.2261 74.2109 31.9629 74.0928 31.7373C73.9746 31.5117 73.7884 31.3381 73.5342 31.2163C73.2835 31.091 72.9595 31.0283 72.562 31.0283H71.0098V38H69.9731V30.1797ZM74.5439 38L72.6426 34.4551L73.7222 34.4497L75.6504 37.9355V38H74.5439ZM77.8633 30.1797V38H76.8267V30.1797H77.8633ZM76.7568 28.9229C76.7568 28.7653 76.8052 28.631 76.9019 28.52C77.0021 28.409 77.1489 28.3535 77.3423 28.3535C77.5321 28.3535 77.6771 28.409 77.7773 28.52C77.8812 28.631 77.9331 28.7653 77.9331 28.9229C77.9331 29.0804 77.8812 29.2147 77.7773 29.3257C77.6771 29.4331 77.5321 29.4868 77.3423 29.4868C77.1489 29.4868 77.0021 29.4331 76.9019 29.3257C76.8052 29.2147 76.7568 29.0804 76.7568 28.9229ZM85.7642 30.1797V38H84.7222L80.7852 31.9683V38H79.7485V30.1797H80.7852L84.7383 36.2275V30.1797H85.7642Z" fill="white"/>
<path d="M53.2368 11.7568L50.0508 21H48.1245L52.1382 10.3359H53.3687L53.2368 11.7568ZM55.9028 21L52.7095 11.7568L52.5703 10.3359H53.8081L57.8364 21H55.9028ZM55.749 17.0449V18.5024H49.9482V17.0449H55.749ZM60.4951 14.5986V24.0469H58.73V13.0752H60.356L60.4951 14.5986ZM65.6587 16.9644V17.1182C65.6587 17.6943 65.5903 18.229 65.4536 18.7222C65.3218 19.2104 65.124 19.6377 64.8604 20.0039C64.6016 20.3652 64.2817 20.646 63.9009 20.8462C63.52 21.0464 63.0806 21.1465 62.5825 21.1465C62.0894 21.1465 61.6572 21.0562 61.2861 20.8755C60.9199 20.6899 60.6099 20.4287 60.356 20.0918C60.1021 19.7549 59.897 19.3594 59.7407 18.9053C59.5894 18.4463 59.4819 17.9434 59.4185 17.3965V16.8032C59.4819 16.2222 59.5894 15.6948 59.7407 15.2212C59.897 14.7476 60.1021 14.3398 60.356 13.998C60.6099 13.6562 60.9199 13.3926 61.2861 13.207C61.6523 13.0215 62.0796 12.9287 62.5679 12.9287C63.0659 12.9287 63.5078 13.0264 63.8936 13.2217C64.2793 13.4121 64.604 13.6855 64.8677 14.042C65.1313 14.3936 65.3291 14.8184 65.4609 15.3164C65.5928 15.8096 65.6587 16.3589 65.6587 16.9644ZM63.8936 17.1182V16.9644C63.8936 16.5981 63.8594 16.2588 63.791 15.9463C63.7227 15.6289 63.6152 15.3506 63.4688 15.1113C63.3223 14.8721 63.1343 14.6865 62.9048 14.5547C62.6802 14.418 62.4092 14.3496 62.0918 14.3496C61.7793 14.3496 61.5107 14.4033 61.2861 14.5107C61.0615 14.6133 60.8735 14.7573 60.7222 14.9429C60.5708 15.1284 60.4536 15.3457 60.3706 15.5947C60.2876 15.8389 60.229 16.105 60.1948 16.3931V17.814C60.2534 18.1655 60.3535 18.4878 60.4951 18.7808C60.6367 19.0737 60.8369 19.3081 61.0957 19.4839C61.3594 19.6548 61.6963 19.7402 62.1064 19.7402C62.4238 19.7402 62.6948 19.6719 62.9194 19.5352C63.144 19.3984 63.3271 19.2104 63.4688 18.9712C63.6152 18.7271 63.7227 18.4463 63.791 18.1289C63.8594 17.8115 63.8936 17.4746 63.8936 17.1182ZM68.9326 14.5986V24.0469H67.1675V13.0752H68.7935L68.9326 14.5986ZM74.0962 16.9644V17.1182C74.0962 17.6943 74.0278 18.229 73.8911 18.7222C73.7593 19.2104 73.5615 19.6377 73.2979 20.0039C73.0391 20.3652 72.7192 20.646 72.3384 20.8462C71.9575 21.0464 71.5181 21.1465 71.02 21.1465C70.5269 21.1465 70.0947 21.0562 69.7236 20.8755C69.3574 20.6899 69.0474 20.4287 68.7935 20.0918C68.5396 19.7549 68.3345 19.3594 68.1782 18.9053C68.0269 18.4463 67.9194 17.9434 67.856 17.3965V16.8032C67.9194 16.2222 68.0269 15.6948 68.1782 15.2212C68.3345 14.7476 68.5396 14.3398 68.7935 13.998C69.0474 13.6562 69.3574 13.3926 69.7236 13.207C70.0898 13.0215 70.5171 12.9287 71.0054 12.9287C71.5034 12.9287 71.9453 13.0264 72.3311 13.2217C72.7168 13.4121 73.0415 13.6855 73.3052 14.042C73.5688 14.3936 73.7666 14.8184 73.8984 15.3164C74.0303 15.8096 74.0962 16.3589 74.0962 16.9644ZM72.3311 17.1182V16.9644C72.3311 16.5981 72.2969 16.2588 72.2285 15.9463C72.1602 15.6289 72.0527 15.3506 71.9062 15.1113C71.7598 14.8721 71.5718 14.6865 71.3423 14.5547C71.1177 14.418 70.8467 14.3496 70.5293 14.3496C70.2168 14.3496 69.9482 14.4033 69.7236 14.5107C69.499 14.6133 69.311 14.7573 69.1597 14.9429C69.0083 15.1284 68.8911 15.3457 68.8081 15.5947C68.7251 15.8389 68.6665 16.105 68.6323 16.3931V17.814C68.6909 18.1655 68.791 18.4878 68.9326 18.7808C69.0742 19.0737 69.2744 19.3081 69.5332 19.4839C69.7969 19.6548 70.1338 19.7402 70.5439 19.7402C70.8613 19.7402 71.1323 19.6719 71.3569 19.5352C71.5815 19.3984 71.7646 19.2104 71.9062 18.9712C72.0527 18.7271 72.1602 18.4463 72.2285 18.1289C72.2969 17.8115 72.3311 17.4746 72.3311 17.1182ZM83.9619 15.5508V19.623C83.8105 19.8232 83.5737 20.043 83.2515 20.2822C82.9341 20.5166 82.5117 20.7192 81.9844 20.8901C81.457 21.061 80.8003 21.1465 80.0142 21.1465C79.3452 21.1465 78.7324 21.0342 78.1758 20.8096C77.6191 20.5801 77.1382 20.2456 76.7329 19.8062C76.3325 19.3667 76.0225 18.832 75.8027 18.2021C75.583 17.5674 75.4731 16.8447 75.4731 16.0342V15.2944C75.4731 14.4888 75.5732 13.771 75.7734 13.1411C75.9785 12.5063 76.2715 11.9692 76.6523 11.5298C77.0332 11.0903 77.4922 10.7583 78.0293 10.5337C78.5713 10.3042 79.1841 10.1895 79.8677 10.1895C80.7417 10.1895 81.4644 10.3359 82.0356 10.6289C82.6118 10.917 83.0562 11.3174 83.3687 11.8301C83.6812 12.3428 83.8789 12.9287 83.9619 13.5879H82.1602C82.1016 13.2168 81.9868 12.8848 81.8159 12.5918C81.6499 12.2988 81.4106 12.0693 81.0981 11.9033C80.7905 11.7324 80.3901 11.647 79.897 11.647C79.4722 11.647 79.0986 11.7275 78.7764 11.8887C78.4541 12.0498 78.1855 12.2866 77.9707 12.5991C77.7607 12.9116 77.6021 13.2925 77.4946 13.7417C77.3872 14.1909 77.3335 14.7036 77.3335 15.2798V16.0342C77.3335 16.6201 77.3945 17.1401 77.5166 17.5942C77.6436 18.0483 77.8242 18.4316 78.0586 18.7441C78.2979 19.0566 78.5884 19.2935 78.9302 19.4546C79.272 19.6108 79.6577 19.689 80.0874 19.689C80.5073 19.689 80.8516 19.6548 81.1201 19.5864C81.3887 19.5132 81.6011 19.4277 81.7573 19.3301C81.9185 19.2275 82.043 19.1299 82.1309 19.0371V16.9204H79.9116V15.5508H83.9619ZM90.29 19.4106V15.6313C90.29 15.3481 90.2388 15.104 90.1362 14.8989C90.0337 14.6938 89.8774 14.5352 89.6675 14.4229C89.4624 14.3105 89.2036 14.2544 88.8911 14.2544C88.603 14.2544 88.354 14.3032 88.144 14.4009C87.9341 14.4985 87.7705 14.6304 87.6533 14.7964C87.5361 14.9624 87.4775 15.1504 87.4775 15.3604H85.7197C85.7197 15.0479 85.7954 14.7451 85.9468 14.4521C86.0981 14.1592 86.3179 13.8979 86.606 13.6685C86.894 13.439 87.2383 13.2583 87.6387 13.1265C88.0391 12.9946 88.4883 12.9287 88.9863 12.9287C89.582 12.9287 90.1094 13.0288 90.5684 13.229C91.0322 13.4292 91.396 13.7319 91.6597 14.1372C91.9282 14.5376 92.0625 15.0405 92.0625 15.646V19.1689C92.0625 19.5303 92.0869 19.855 92.1357 20.1431C92.1895 20.4263 92.2651 20.6729 92.3628 20.8828V21H90.5537C90.4707 20.8096 90.4048 20.5679 90.356 20.2749C90.312 19.9771 90.29 19.689 90.29 19.4106ZM90.5464 16.1807L90.561 17.272H89.2939C88.9668 17.272 88.6787 17.3037 88.4297 17.3672C88.1807 17.4258 87.9731 17.5137 87.8071 17.6309C87.6411 17.748 87.5166 17.8896 87.4336 18.0557C87.3506 18.2217 87.3091 18.4097 87.3091 18.6196C87.3091 18.8296 87.3579 19.0225 87.4556 19.1982C87.5532 19.3691 87.6948 19.5034 87.8804 19.6011C88.0708 19.6987 88.3003 19.7476 88.5688 19.7476C88.9302 19.7476 89.2451 19.6743 89.5137 19.5278C89.7871 19.3765 90.002 19.1934 90.1582 18.9785C90.3145 18.7588 90.3975 18.5513 90.4072 18.356L90.9785 19.1396C90.9199 19.3398 90.8198 19.5547 90.6782 19.7842C90.5366 20.0137 90.3511 20.2334 90.1216 20.4434C89.897 20.6484 89.626 20.8169 89.3086 20.9487C88.9961 21.0806 88.6348 21.1465 88.2246 21.1465C87.707 21.1465 87.2456 21.0439 86.8403 20.8389C86.4351 20.6289 86.1177 20.3481 85.8882 19.9966C85.6587 19.6401 85.5439 19.2373 85.5439 18.7881C85.5439 18.3682 85.6221 17.9971 85.7783 17.6748C85.9395 17.3477 86.1738 17.0742 86.4814 16.8545C86.7939 16.6348 87.1748 16.4688 87.624 16.3564C88.0732 16.2393 88.5859 16.1807 89.1621 16.1807H90.5464ZM95.7979 9.75V21H94.0254V9.75H95.7979ZM99.6211 9.75V21H97.8486V9.75H99.6211ZM105.048 21.1465C104.462 21.1465 103.933 21.0513 103.459 20.8608C102.99 20.6655 102.59 20.3945 102.258 20.0479C101.931 19.7012 101.679 19.2935 101.503 18.8247C101.328 18.356 101.24 17.8506 101.24 17.3086V17.0156C101.24 16.3955 101.33 15.834 101.511 15.3311C101.691 14.8281 101.943 14.3984 102.265 14.042C102.587 13.6807 102.968 13.4048 103.408 13.2144C103.847 13.0239 104.323 12.9287 104.836 12.9287C105.402 12.9287 105.898 13.0239 106.323 13.2144C106.748 13.4048 107.099 13.6733 107.377 14.02C107.661 14.3618 107.871 14.7695 108.007 15.2432C108.149 15.7168 108.22 16.2393 108.22 16.8105V17.5649H102.097V16.2979H106.477V16.1587C106.467 15.8413 106.403 15.5435 106.286 15.2651C106.174 14.9868 106 14.7622 105.766 14.5913C105.532 14.4204 105.219 14.335 104.829 14.335C104.536 14.335 104.274 14.3984 104.045 14.5254C103.82 14.6475 103.632 14.8257 103.481 15.0601C103.33 15.2944 103.212 15.5776 103.129 15.9097C103.051 16.2368 103.012 16.6055 103.012 17.0156V17.3086C103.012 17.6553 103.059 17.9775 103.151 18.2754C103.249 18.5684 103.391 18.8247 103.576 19.0444C103.762 19.2642 103.986 19.4375 104.25 19.5645C104.514 19.6865 104.814 19.7476 105.151 19.7476C105.576 19.7476 105.954 19.6621 106.286 19.4912C106.618 19.3203 106.906 19.0786 107.15 18.7661L108.081 19.667C107.91 19.916 107.688 20.1553 107.414 20.3848C107.141 20.6094 106.806 20.7925 106.411 20.9341C106.02 21.0757 105.566 21.1465 105.048 21.1465ZM111.369 14.584V21H109.604V13.0752H111.289L111.369 14.584ZM113.793 13.0239L113.779 14.6646C113.671 14.645 113.554 14.6304 113.427 14.6206C113.305 14.6108 113.183 14.606 113.061 14.606C112.758 14.606 112.492 14.6499 112.263 14.7378C112.033 14.8208 111.84 14.9429 111.684 15.104C111.533 15.2603 111.416 15.4507 111.333 15.6753C111.25 15.8999 111.201 16.1514 111.186 16.4297L110.783 16.459C110.783 15.9609 110.832 15.4995 110.93 15.0747C111.027 14.6499 111.174 14.2764 111.369 13.9541C111.569 13.6318 111.818 13.3804 112.116 13.1997C112.419 13.019 112.768 12.9287 113.164 12.9287C113.271 12.9287 113.386 12.9385 113.508 12.958C113.635 12.9775 113.73 12.9995 113.793 13.0239ZM117.331 20.1357L119.484 13.0752H121.374L118.195 22.2085C118.122 22.4038 118.027 22.6162 117.91 22.8457C117.792 23.0752 117.639 23.2925 117.448 23.4976C117.263 23.7075 117.031 23.876 116.752 24.0029C116.474 24.1348 116.137 24.2007 115.742 24.2007C115.585 24.2007 115.434 24.186 115.288 24.1567C115.146 24.1323 115.012 24.1055 114.885 24.0762L114.877 22.7285C114.926 22.7334 114.985 22.7383 115.053 22.7432C115.126 22.748 115.185 22.7505 115.229 22.7505C115.522 22.7505 115.766 22.7139 115.961 22.6406C116.157 22.5723 116.315 22.46 116.438 22.3037C116.564 22.1475 116.672 21.9375 116.76 21.6738L117.331 20.1357ZM116.115 13.0752L117.998 19.0078L118.312 20.8682L117.089 21.1831L114.211 13.0752H116.115Z" fill="white"/>
</g>
</g>
<defs>
<clipPath id="clip0_310_1161">
<rect width="150" height="48" fill="white"/>
</clipPath>
</defs>
</svg>
