<svg width="150" height="48" viewBox="0 0 150 48" fill="none" xmlns="http://www.w3.org/2000/svg">
<g clip-path="url(#clip0_310_1144)">
<rect width="150" height="48" rx="3" fill="#3C4D53"/>
<mask id="mask0_310_1144" style="mask-type:luminance" maskUnits="userSpaceOnUse" x="0" y="0" width="150" height="48">
<rect width="150" height="48" rx="3" fill="white"/>
</mask>
<g mask="url(#mask0_310_1144)">
<rect width="150" height="48" fill="#64707C"/>
<path d="M50.0195 30.1797V38H48.9829V30.1797H50.0195ZM48.9131 28.9229C48.9131 28.7653 48.9614 28.631 49.0581 28.52C49.1584 28.409 49.3052 28.3535 49.4985 28.3535C49.6883 28.3535 49.8333 28.409 49.9336 28.52C50.0374 28.631 50.0894 28.7653 50.0894 28.9229C50.0894 29.0804 50.0374 29.2147 49.9336 29.3257C49.8333 29.4331 49.6883 29.4868 49.4985 29.4868C49.3052 29.4868 49.1584 29.4331 49.0581 29.3257C48.9614 29.2147 48.9131 29.0804 48.9131 28.9229ZM57.9204 30.1797V38H56.8784L52.9414 31.9683V38H51.9048V30.1797H52.9414L56.8945 36.2275V30.1797H57.9204ZM61.8735 38H60.2407L60.2515 37.1567H61.8735C62.4321 37.1567 62.8976 37.0404 63.27 36.8076C63.6424 36.5713 63.9217 36.2419 64.1079 35.8193C64.2977 35.3932 64.3926 34.8955 64.3926 34.3262V33.8481C64.3926 33.4006 64.3389 33.0031 64.2314 32.6558C64.124 32.3049 63.9665 32.0094 63.7588 31.7695C63.5511 31.526 63.2969 31.3416 62.9961 31.2163C62.6989 31.091 62.3569 31.0283 61.9702 31.0283H60.2085V30.1797H61.9702C62.4823 30.1797 62.9495 30.2656 63.3721 30.4375C63.7946 30.6058 64.158 30.8511 64.4624 31.1733C64.7703 31.492 65.0067 31.8787 65.1714 32.3335C65.3361 32.7847 65.4185 33.2931 65.4185 33.8589V34.3262C65.4185 34.8919 65.3361 35.4022 65.1714 35.8569C65.0067 36.3081 64.7686 36.693 64.457 37.0117C64.1491 37.3304 63.7767 37.5757 63.3398 37.7476C62.9066 37.9159 62.4178 38 61.8735 38ZM60.7939 30.1797V38H59.7573V30.1797H60.7939ZM68.0879 30.1797V38H67.0513V30.1797H68.0879ZM66.9814 28.9229C66.9814 28.7653 67.0298 28.631 67.1265 28.52C67.2267 28.409 67.3735 28.3535 67.5669 28.3535C67.7567 28.3535 67.9017 28.409 68.002 28.52C68.1058 28.631 68.1577 28.7653 68.1577 28.9229C68.1577 29.0804 68.1058 29.2147 68.002 29.3257C67.9017 29.4331 67.7567 29.4868 67.5669 29.4868C67.3735 29.4868 67.2267 29.4331 67.1265 29.3257C67.0298 29.2147 66.9814 29.0804 66.9814 28.9229ZM69.9731 30.1797H72.562C73.1493 30.1797 73.6452 30.2692 74.0498 30.4482C74.458 30.6273 74.7677 30.8923 74.979 31.2432C75.1938 31.5905 75.3013 32.0184 75.3013 32.5269C75.3013 32.8849 75.2279 33.2126 75.0811 33.5098C74.9378 33.8034 74.7301 34.054 74.458 34.2617C74.1895 34.4658 73.8672 34.618 73.4912 34.7183L73.2012 34.8311H70.7681L70.7573 33.9878H72.5942C72.9666 33.9878 73.2764 33.9233 73.5234 33.7944C73.7705 33.6619 73.9567 33.4847 74.082 33.2627C74.2074 33.0407 74.27 32.7954 74.27 32.5269C74.27 32.2261 74.2109 31.9629 74.0928 31.7373C73.9746 31.5117 73.7884 31.3381 73.5342 31.2163C73.2835 31.091 72.9595 31.0283 72.562 31.0283H71.0098V38H69.9731V30.1797ZM74.5439 38L72.6426 34.4551L73.7222 34.4497L75.6504 37.9355V38H74.5439ZM77.8633 30.1797V38H76.8267V30.1797H77.8633ZM76.7568 28.9229C76.7568 28.7653 76.8052 28.631 76.9019 28.52C77.0021 28.409 77.1489 28.3535 77.3423 28.3535C77.5321 28.3535 77.6771 28.409 77.7773 28.52C77.8812 28.631 77.9331 28.7653 77.9331 28.9229C77.9331 29.0804 77.8812 29.2147 77.7773 29.3257C77.6771 29.4331 77.5321 29.4868 77.3423 29.4868C77.1489 29.4868 77.0021 29.4331 76.9019 29.3257C76.8052 29.2147 76.7568 29.0804 76.7568 28.9229ZM85.7642 30.1797V38H84.7222L80.7852 31.9683V38H79.7485V30.1797H80.7852L84.7383 36.2275V30.1797H85.7642Z" fill="white"/>
<path d="M53.2368 11.7568L50.0508 21H48.1245L52.1382 10.3359H53.3687L53.2368 11.7568ZM55.9028 21L52.7095 11.7568L52.5703 10.3359H53.8081L57.8364 21H55.9028ZM55.749 17.0449V18.5024H49.9482V17.0449H55.749ZM60.4951 14.5986V24.0469H58.73V13.0752H60.356L60.4951 14.5986ZM65.6587 16.9644V17.1182C65.6587 17.6943 65.5903 18.229 65.4536 18.7222C65.3218 19.2104 65.124 19.6377 64.8604 20.0039C64.6016 20.3652 64.2817 20.646 63.9009 20.8462C63.52 21.0464 63.0806 21.1465 62.5825 21.1465C62.0894 21.1465 61.6572 21.0562 61.2861 20.8755C60.9199 20.6899 60.6099 20.4287 60.356 20.0918C60.1021 19.7549 59.897 19.3594 59.7407 18.9053C59.5894 18.4463 59.4819 17.9434 59.4185 17.3965V16.8032C59.4819 16.2222 59.5894 15.6948 59.7407 15.2212C59.897 14.7476 60.1021 14.3398 60.356 13.998C60.6099 13.6562 60.9199 13.3926 61.2861 13.207C61.6523 13.0215 62.0796 12.9287 62.5679 12.9287C63.0659 12.9287 63.5078 13.0264 63.8936 13.2217C64.2793 13.4121 64.604 13.6855 64.8677 14.042C65.1313 14.3936 65.3291 14.8184 65.4609 15.3164C65.5928 15.8096 65.6587 16.3589 65.6587 16.9644ZM63.8936 17.1182V16.9644C63.8936 16.5981 63.8594 16.2588 63.791 15.9463C63.7227 15.6289 63.6152 15.3506 63.4688 15.1113C63.3223 14.8721 63.1343 14.6865 62.9048 14.5547C62.6802 14.418 62.4092 14.3496 62.0918 14.3496C61.7793 14.3496 61.5107 14.4033 61.2861 14.5107C61.0615 14.6133 60.8735 14.7573 60.7222 14.9429C60.5708 15.1284 60.4536 15.3457 60.3706 15.5947C60.2876 15.8389 60.229 16.105 60.1948 16.3931V17.814C60.2534 18.1655 60.3535 18.4878 60.4951 18.7808C60.6367 19.0737 60.8369 19.3081 61.0957 19.4839C61.3594 19.6548 61.6963 19.7402 62.1064 19.7402C62.4238 19.7402 62.6948 19.6719 62.9194 19.5352C63.144 19.3984 63.3271 19.2104 63.4688 18.9712C63.6152 18.7271 63.7227 18.4463 63.791 18.1289C63.8594 17.8115 63.8936 17.4746 63.8936 17.1182ZM68.9326 14.5986V24.0469H67.1675V13.0752H68.7935L68.9326 14.5986ZM74.0962 16.9644V17.1182C74.0962 17.6943 74.0278 18.229 73.8911 18.7222C73.7593 19.2104 73.5615 19.6377 73.2979 20.0039C73.0391 20.3652 72.7192 20.646 72.3384 20.8462C71.9575 21.0464 71.5181 21.1465 71.02 21.1465C70.5269 21.1465 70.0947 21.0562 69.7236 20.8755C69.3574 20.6899 69.0474 20.4287 68.7935 20.0918C68.5396 19.7549 68.3345 19.3594 68.1782 18.9053C68.0269 18.4463 67.9194 17.9434 67.856 17.3965V16.8032C67.9194 16.2222 68.0269 15.6948 68.1782 15.2212C68.3345 14.7476 68.5396 14.3398 68.7935 13.998C69.0474 13.6562 69.3574 13.3926 69.7236 13.207C70.0898 13.0215 70.5171 12.9287 71.0054 12.9287C71.5034 12.9287 71.9453 13.0264 72.3311 13.2217C72.7168 13.4121 73.0415 13.6855 73.3052 14.042C73.5688 14.3936 73.7666 14.8184 73.8984 15.3164C74.0303 15.8096 74.0962 16.3589 74.0962 16.9644ZM72.3311 17.1182V16.9644C72.3311 16.5981 72.2969 16.2588 72.2285 15.9463C72.1602 15.6289 72.0527 15.3506 71.9062 15.1113C71.7598 14.8721 71.5718 14.6865 71.3423 14.5547C71.1177 14.418 70.8467 14.3496 70.5293 14.3496C70.2168 14.3496 69.9482 14.4033 69.7236 14.5107C69.499 14.6133 69.311 14.7573 69.1597 14.9429C69.0083 15.1284 68.8911 15.3457 68.8081 15.5947C68.7251 15.8389 68.6665 16.105 68.6323 16.3931V17.814C68.6909 18.1655 68.791 18.4878 68.9326 18.7808C69.0742 19.0737 69.2744 19.3081 69.5332 19.4839C69.7969 19.6548 70.1338 19.7402 70.5439 19.7402C70.8613 19.7402 71.1323 19.6719 71.3569 19.5352C71.5815 19.3984 71.7646 19.2104 71.9062 18.9712C72.0527 18.7271 72.1602 18.4463 72.2285 18.1289C72.2969 17.8115 72.3311 17.4746 72.3311 17.1182ZM81.3838 18.2534C81.3838 18.0337 81.3496 17.8384 81.2812 17.6675C81.2178 17.4966 81.103 17.3403 80.937 17.1987C80.771 17.0571 80.5366 16.9204 80.2339 16.7886C79.936 16.6519 79.5552 16.5127 79.0913 16.3711C78.5835 16.2148 78.1147 16.0415 77.6851 15.8511C77.2603 15.6558 76.8892 15.4312 76.5718 15.1772C76.2544 14.9185 76.0078 14.623 75.832 14.291C75.6562 13.9541 75.5684 13.5659 75.5684 13.1265C75.5684 12.6919 75.6587 12.2964 75.8394 11.9399C76.0249 11.5835 76.2861 11.2759 76.623 11.0171C76.9648 10.7534 77.3677 10.5508 77.8315 10.4092C78.2954 10.2627 78.8081 10.1895 79.3696 10.1895C80.1606 10.1895 80.8418 10.3359 81.4131 10.6289C81.9893 10.9219 82.4312 11.3149 82.7388 11.8081C83.0513 12.3013 83.2075 12.8457 83.2075 13.4414H81.3838C81.3838 13.0898 81.3081 12.7798 81.1567 12.5112C81.0103 12.2378 80.7856 12.0229 80.4829 11.8667C80.1851 11.7104 79.8066 11.6323 79.3477 11.6323C78.9131 11.6323 78.5518 11.6982 78.2637 11.8301C77.9756 11.9619 77.7607 12.1401 77.6191 12.3647C77.4775 12.5894 77.4067 12.8433 77.4067 13.1265C77.4067 13.3267 77.4531 13.5098 77.5459 13.6758C77.6387 13.8369 77.7803 13.9883 77.9707 14.1299C78.1611 14.2666 78.4004 14.396 78.6885 14.5181C78.9766 14.6401 79.3159 14.7573 79.7065 14.8696C80.2974 15.0454 80.8125 15.2407 81.252 15.4556C81.6914 15.6655 82.0576 15.9048 82.3506 16.1733C82.6436 16.4419 82.8633 16.7471 83.0098 17.0889C83.1562 17.4258 83.2295 17.8091 83.2295 18.2388C83.2295 18.688 83.1392 19.0933 82.9585 19.4546C82.7778 19.811 82.519 20.1162 82.1821 20.3701C81.8501 20.6191 81.4497 20.812 80.981 20.9487C80.5171 21.0806 79.9995 21.1465 79.4282 21.1465C78.9155 21.1465 78.4102 21.0781 77.9121 20.9414C77.4189 20.8047 76.9697 20.5972 76.5645 20.3188C76.1592 20.0356 75.8369 19.6841 75.5977 19.2642C75.3584 18.8394 75.2388 18.3438 75.2388 17.7773H77.0771C77.0771 18.124 77.1357 18.4194 77.2529 18.6636C77.375 18.9077 77.5435 19.1079 77.7583 19.2642C77.9731 19.4155 78.2222 19.5278 78.5054 19.6011C78.7935 19.6743 79.1011 19.7109 79.4282 19.7109C79.8579 19.7109 80.2168 19.6499 80.5049 19.5278C80.7979 19.4058 81.0176 19.2349 81.1641 19.0151C81.3105 18.7954 81.3838 18.5415 81.3838 18.2534ZM88.3125 13.0752V14.3643H83.8447V13.0752H88.3125ZM85.1338 11.1343H86.8989V18.8101C86.8989 19.0542 86.9331 19.2422 87.0015 19.374C87.0747 19.501 87.1748 19.5864 87.3018 19.6304C87.4287 19.6743 87.5776 19.6963 87.7485 19.6963C87.8706 19.6963 87.9878 19.689 88.1001 19.6743C88.2124 19.6597 88.3027 19.645 88.3711 19.6304L88.3784 20.978C88.2319 21.022 88.061 21.061 87.8657 21.0952C87.6753 21.1294 87.4556 21.1465 87.2065 21.1465C86.8013 21.1465 86.4424 21.0757 86.1299 20.9341C85.8174 20.7876 85.5732 20.5508 85.3975 20.2236C85.2217 19.8965 85.1338 19.4619 85.1338 18.9199V11.1343ZM89.1621 17.1255V16.957C89.1621 16.3857 89.2451 15.856 89.4111 15.3677C89.5771 14.8745 89.8164 14.4473 90.1289 14.0859C90.4463 13.7197 90.832 13.4365 91.2861 13.2363C91.7451 13.0312 92.2627 12.9287 92.8389 12.9287C93.4199 12.9287 93.9375 13.0312 94.3916 13.2363C94.8506 13.4365 95.2388 13.7197 95.5562 14.0859C95.8735 14.4473 96.1152 14.8745 96.2812 15.3677C96.4473 15.856 96.5303 16.3857 96.5303 16.957V17.1255C96.5303 17.6968 96.4473 18.2266 96.2812 18.7148C96.1152 19.2031 95.8735 19.6304 95.5562 19.9966C95.2388 20.3579 94.853 20.6411 94.3989 20.8462C93.9448 21.0464 93.4297 21.1465 92.8535 21.1465C92.2725 21.1465 91.7524 21.0464 91.2935 20.8462C90.8394 20.6411 90.4536 20.3579 90.1362 19.9966C89.8188 19.6304 89.5771 19.2031 89.4111 18.7148C89.2451 18.2266 89.1621 17.6968 89.1621 17.1255ZM90.9272 16.957V17.1255C90.9272 17.4819 90.9639 17.8188 91.0371 18.1362C91.1104 18.4536 91.2251 18.7319 91.3813 18.9712C91.5376 19.2104 91.7378 19.3984 91.9819 19.5352C92.2261 19.6719 92.5166 19.7402 92.8535 19.7402C93.1807 19.7402 93.4639 19.6719 93.7031 19.5352C93.9473 19.3984 94.1475 19.2104 94.3037 18.9712C94.46 18.7319 94.5747 18.4536 94.6479 18.1362C94.7261 17.8188 94.7651 17.4819 94.7651 17.1255V16.957C94.7651 16.6055 94.7261 16.2734 94.6479 15.9609C94.5747 15.6436 94.4575 15.3628 94.2964 15.1187C94.1401 14.8745 93.9399 14.6841 93.6958 14.5474C93.4565 14.4058 93.1709 14.335 92.8389 14.335C92.5068 14.335 92.2188 14.4058 91.9746 14.5474C91.7354 14.6841 91.5376 14.8745 91.3813 15.1187C91.2251 15.3628 91.1104 15.6436 91.0371 15.9609C90.9639 16.2734 90.9272 16.6055 90.9272 16.957ZM99.7822 14.584V21H98.0171V13.0752H99.7017L99.7822 14.584ZM102.207 13.0239L102.192 14.6646C102.084 14.645 101.967 14.6304 101.84 14.6206C101.718 14.6108 101.596 14.606 101.474 14.606C101.171 14.606 100.905 14.6499 100.676 14.7378C100.446 14.8208 100.253 14.9429 100.097 15.104C99.9458 15.2603 99.8286 15.4507 99.7456 15.6753C99.6626 15.8999 99.6138 16.1514 99.5991 16.4297L99.1963 16.459C99.1963 15.9609 99.2451 15.4995 99.3428 15.0747C99.4404 14.6499 99.5869 14.2764 99.7822 13.9541C99.9824 13.6318 100.231 13.3804 100.529 13.1997C100.832 13.019 101.181 12.9287 101.577 12.9287C101.684 12.9287 101.799 12.9385 101.921 12.958C102.048 12.9775 102.143 12.9995 102.207 13.0239ZM106.66 21.1465C106.074 21.1465 105.544 21.0513 105.07 20.8608C104.602 20.6655 104.201 20.3945 103.869 20.0479C103.542 19.7012 103.291 19.2935 103.115 18.8247C102.939 18.356 102.851 17.8506 102.851 17.3086V17.0156C102.851 16.3955 102.941 15.834 103.122 15.3311C103.303 14.8281 103.554 14.3984 103.876 14.042C104.199 13.6807 104.58 13.4048 105.019 13.2144C105.458 13.0239 105.935 12.9287 106.447 12.9287C107.014 12.9287 107.509 13.0239 107.934 13.2144C108.359 13.4048 108.71 13.6733 108.989 14.02C109.272 14.3618 109.482 14.7695 109.619 15.2432C109.76 15.7168 109.831 16.2393 109.831 16.8105V17.5649H103.708V16.2979H108.088V16.1587C108.078 15.8413 108.015 15.5435 107.897 15.2651C107.785 14.9868 107.612 14.7622 107.377 14.5913C107.143 14.4204 106.831 14.335 106.44 14.335C106.147 14.335 105.886 14.3984 105.656 14.5254C105.432 14.6475 105.244 14.8257 105.092 15.0601C104.941 15.2944 104.824 15.5776 104.741 15.9097C104.663 16.2368 104.624 16.6055 104.624 17.0156V17.3086C104.624 17.6553 104.67 17.9775 104.763 18.2754C104.86 18.5684 105.002 18.8247 105.188 19.0444C105.373 19.2642 105.598 19.4375 105.861 19.5645C106.125 19.6865 106.425 19.7476 106.762 19.7476C107.187 19.7476 107.565 19.6621 107.897 19.4912C108.229 19.3203 108.518 19.0786 108.762 18.7661L109.692 19.667C109.521 19.916 109.299 20.1553 109.025 20.3848C108.752 20.6094 108.417 20.7925 108.022 20.9341C107.631 21.0757 107.177 21.1465 106.66 21.1465Z" fill="white"/>
<rect opacity="0.01" x="12" y="11" width="24" height="24" fill="#3C4D53"/>
<path fill-rule="evenodd" clip-rule="evenodd" d="M28.6024 11C27.3911 11.0506 25.9233 11.8044 25.0547 12.8178C24.2738 13.7178 23.5921 15.1542 23.7759 16.5314C25.1283 16.6368 26.5063 15.847 27.3482 14.8331C28.1883 13.8173 28.7571 12.4077 28.6024 11ZM28.26 34.968C29.9012 34.9375 30.9407 33.4834 31.9457 32.0204C33.0468 30.4178 33.5331 28.864 33.6056 28.6323C33.6096 28.6194 33.6124 28.6106 33.6139 28.6061C33.6131 28.6058 33.6111 28.605 33.6078 28.6036C33.45 28.5397 30.4121 27.3094 30.3819 23.7529C30.3523 20.816 32.7034 19.3551 32.9622 19.1942C32.9712 19.1886 32.9777 19.1846 32.9814 19.1821C31.5663 17.1206 29.3627 16.8379 28.5776 16.8056C27.4308 16.6901 26.3181 17.1268 25.409 17.4836C24.8313 17.7103 24.3358 17.9048 23.966 17.9048C23.5543 17.9048 23.0452 17.7035 22.4739 17.4777C21.7261 17.182 20.8717 16.8442 19.9896 16.8604C17.9465 16.8909 16.0612 18.0449 15.009 19.8689C12.8842 23.5416 14.4641 28.9839 16.5341 31.9618C17.5473 33.4183 18.7521 35.0575 20.3365 34.9985C21.0439 34.9702 21.5474 34.7566 22.0681 34.5357C22.6699 34.2805 23.2946 34.0155 24.2838 34.0155C25.2259 34.0155 25.8218 34.2723 26.3949 34.5193C26.943 34.7556 27.4704 34.9829 28.26 34.968Z" fill="white"/>
<mask id="mask1_310_1144" style="mask-type:luminance" maskUnits="userSpaceOnUse" x="14" y="11" width="20" height="24">
<path fill-rule="evenodd" clip-rule="evenodd" d="M28.6024 11C27.3911 11.0506 25.9233 11.8044 25.0547 12.8178C24.2738 13.7178 23.5921 15.1542 23.7759 16.5314C25.1283 16.6368 26.5063 15.847 27.3482 14.8331C28.1883 13.8173 28.7571 12.4077 28.6024 11ZM28.26 34.968C29.9012 34.9375 30.9407 33.4834 31.9457 32.0204C33.0468 30.4178 33.5331 28.864 33.6056 28.6323C33.6096 28.6194 33.6124 28.6106 33.6139 28.6061C33.6131 28.6058 33.6111 28.605 33.6078 28.6036C33.45 28.5397 30.4121 27.3094 30.3819 23.7529C30.3523 20.816 32.7034 19.3551 32.9622 19.1942C32.9712 19.1886 32.9777 19.1846 32.9814 19.1821C31.5663 17.1206 29.3627 16.8379 28.5776 16.8056C27.4308 16.6901 26.3181 17.1268 25.409 17.4836C24.8313 17.7103 24.3358 17.9048 23.966 17.9048C23.5543 17.9048 23.0452 17.7035 22.4739 17.4777C21.7261 17.182 20.8717 16.8442 19.9896 16.8604C17.9465 16.8909 16.0612 18.0449 15.009 19.8689C12.8842 23.5416 14.4641 28.9839 16.5341 31.9618C17.5473 33.4183 18.7521 35.0575 20.3365 34.9985C21.0439 34.9702 21.5474 34.7566 22.0681 34.5357C22.6699 34.2805 23.2946 34.0155 24.2838 34.0155C25.2259 34.0155 25.8218 34.2723 26.3949 34.5193C26.943 34.7556 27.4704 34.9829 28.26 34.968Z" fill="white"/>
</mask>
<g mask="url(#mask1_310_1144)">
<rect x="12" y="11" width="24" height="24" fill="white"/>
</g>
</g>
</g>
<defs>
<clipPath id="clip0_310_1144">
<rect width="150" height="48" fill="white"/>
</clipPath>
</defs>
</svg>
