<svg width="44" height="44" viewBox="0 0 44 44" fill="none" xmlns="http://www.w3.org/2000/svg">
<ellipse cx="21.5051" cy="21.551" rx="21.5051" ry="21.551" fill="white"/>
<mask id="mask0_310_1175" style="mask-type:luminance" maskUnits="userSpaceOnUse" x="0" y="0" width="44" height="44">
<ellipse cx="21.5051" cy="21.551" rx="21.5051" ry="21.551" fill="white"/>
</mask>
<g mask="url(#mask0_310_1175)">
<rect width="43.0103" height="43.102" fill="white"/>
<path fill-rule="evenodd" clip-rule="evenodd" d="M19.0413 17.4354V19.0816H17.3985C16.9449 19.0816 16.5771 19.4501 16.5771 19.9047V23.1973C16.5771 23.6519 16.9449 24.0204 17.3985 24.0204H19.0413V29.7823C19.0413 30.2369 19.409 30.6054 19.8627 30.6054H23.1482C23.6018 30.6054 23.9695 30.2369 23.9695 29.7823V24.0204H25.6123C25.9892 24.0204 26.3177 23.7633 26.4091 23.3969L27.2305 20.1044C27.3601 19.5849 26.968 19.0816 26.4337 19.0816H23.9695V17.4354H26.4337C26.8873 17.4354 27.2551 17.0668 27.2551 16.6122V13.3197C27.2551 12.8651 26.8873 12.4966 26.4337 12.4966H23.9695C21.2477 12.4966 19.0413 14.7077 19.0413 17.4354ZM23.9695 14.1429H25.6123V15.7891H23.9695C23.0623 15.7891 22.3268 16.5262 22.3268 17.4354V19.9048C22.3268 20.3594 22.6945 20.7279 23.1482 20.7279H25.3817L24.971 22.3742H23.1482C22.6945 22.3742 22.3268 22.7427 22.3268 23.1973V28.9592H20.684V23.1973C20.684 22.7427 20.3163 22.3742 19.8627 22.3742H18.2199V20.7279H19.8627C20.3163 20.7279 20.684 20.3594 20.684 19.9048V17.4354C20.684 15.617 22.155 14.1429 23.9695 14.1429Z" fill="#3B5998"/>
<mask id="mask1_310_1175" style="mask-type:luminance" maskUnits="userSpaceOnUse" x="16" y="12" width="12" height="19">
<path fill-rule="evenodd" clip-rule="evenodd" d="M19.0413 17.4354V19.0816H17.3985C16.9449 19.0816 16.5771 19.4501 16.5771 19.9047V23.1973C16.5771 23.6519 16.9449 24.0204 17.3985 24.0204H19.0413V29.7823C19.0413 30.2369 19.409 30.6054 19.8627 30.6054H23.1482C23.6018 30.6054 23.9695 30.2369 23.9695 29.7823V24.0204H25.6123C25.9892 24.0204 26.3177 23.7633 26.4091 23.3969L27.2305 20.1044C27.3601 19.5849 26.968 19.0816 26.4337 19.0816H23.9695V17.4354H26.4337C26.8873 17.4354 27.2551 17.0668 27.2551 16.6122V13.3197C27.2551 12.8651 26.8873 12.4966 26.4337 12.4966H23.9695C21.2477 12.4966 19.0413 14.7077 19.0413 17.4354ZM23.9695 14.1429H25.6123V15.7891H23.9695C23.0623 15.7891 22.3268 16.5262 22.3268 17.4354V19.9048C22.3268 20.3594 22.6945 20.7279 23.1482 20.7279H25.3817L24.971 22.3742H23.1482C22.6945 22.3742 22.3268 22.7427 22.3268 23.1973V28.9592H20.684V23.1973C20.684 22.7427 20.3163 22.3742 19.8627 22.3742H18.2199V20.7279H19.8627C20.3163 20.7279 20.684 20.3594 20.684 19.9048V17.4354C20.684 15.617 22.155 14.1429 23.9695 14.1429Z" fill="white"/>
</mask>
<g mask="url(#mask1_310_1175)">
</g>
</g>
</svg>
