<svg width="150" height="48" viewBox="0 0 150 48" fill="none" xmlns="http://www.w3.org/2000/svg">
<g clip-path="url(#clip0_310_1123)">
<rect width="150" height="48" rx="3" fill="#3C4D53"/>
<mask id="mask0_310_1123" style="mask-type:luminance" maskUnits="userSpaceOnUse" x="0" y="0" width="150" height="48">
<rect width="150" height="48" rx="3" fill="white"/>
</mask>
<g mask="url(#mask0_310_1123)">
<rect width="150" height="48" fill="#64707C"/>
<path d="M48.0195 30.1797V38H46.9829V30.1797H48.0195ZM46.9131 28.9229C46.9131 28.7653 46.9614 28.631 47.0581 28.52C47.1584 28.409 47.3052 28.3535 47.4985 28.3535C47.6883 28.3535 47.8333 28.409 47.9336 28.52C48.0374 28.631 48.0894 28.7653 48.0894 28.9229C48.0894 29.0804 48.0374 29.2147 47.9336 29.3257C47.8333 29.4331 47.6883 29.4868 47.4985 29.4868C47.3052 29.4868 47.1584 29.4331 47.0581 29.3257C46.9614 29.2147 46.9131 29.0804 46.9131 28.9229ZM55.9204 30.1797V38H54.8784L50.9414 31.9683V38H49.9048V30.1797H50.9414L54.8945 36.2275V30.1797H55.9204ZM59.8735 38H58.2407L58.2515 37.1567H59.8735C60.4321 37.1567 60.8976 37.0404 61.27 36.8076C61.6424 36.5713 61.9217 36.2419 62.1079 35.8193C62.2977 35.3932 62.3926 34.8955 62.3926 34.3262V33.8481C62.3926 33.4006 62.3389 33.0031 62.2314 32.6558C62.124 32.3049 61.9665 32.0094 61.7588 31.7695C61.5511 31.526 61.2969 31.3416 60.9961 31.2163C60.6989 31.091 60.3569 31.0283 59.9702 31.0283H58.2085V30.1797H59.9702C60.4823 30.1797 60.9495 30.2656 61.3721 30.4375C61.7946 30.6058 62.158 30.8511 62.4624 31.1733C62.7703 31.492 63.0067 31.8787 63.1714 32.3335C63.3361 32.7847 63.4185 33.2931 63.4185 33.8589V34.3262C63.4185 34.8919 63.3361 35.4022 63.1714 35.8569C63.0067 36.3081 62.7686 36.693 62.457 37.0117C62.1491 37.3304 61.7767 37.5757 61.3398 37.7476C60.9066 37.9159 60.4178 38 59.8735 38ZM58.7939 30.1797V38H57.7573V30.1797H58.7939ZM66.0879 30.1797V38H65.0513V30.1797H66.0879ZM64.9814 28.9229C64.9814 28.7653 65.0298 28.631 65.1265 28.52C65.2267 28.409 65.3735 28.3535 65.5669 28.3535C65.7567 28.3535 65.9017 28.409 66.002 28.52C66.1058 28.631 66.1577 28.7653 66.1577 28.9229C66.1577 29.0804 66.1058 29.2147 66.002 29.3257C65.9017 29.4331 65.7567 29.4868 65.5669 29.4868C65.3735 29.4868 65.2267 29.4331 65.1265 29.3257C65.0298 29.2147 64.9814 29.0804 64.9814 28.9229ZM67.9731 30.1797H70.562C71.1493 30.1797 71.6452 30.2692 72.0498 30.4482C72.458 30.6273 72.7677 30.8923 72.979 31.2432C73.1938 31.5905 73.3013 32.0184 73.3013 32.5269C73.3013 32.8849 73.2279 33.2126 73.0811 33.5098C72.9378 33.8034 72.7301 34.054 72.458 34.2617C72.1895 34.4658 71.8672 34.618 71.4912 34.7183L71.2012 34.8311H68.7681L68.7573 33.9878H70.5942C70.9666 33.9878 71.2764 33.9233 71.5234 33.7944C71.7705 33.6619 71.9567 33.4847 72.082 33.2627C72.2074 33.0407 72.27 32.7954 72.27 32.5269C72.27 32.2261 72.2109 31.9629 72.0928 31.7373C71.9746 31.5117 71.7884 31.3381 71.5342 31.2163C71.2835 31.091 70.9595 31.0283 70.562 31.0283H69.0098V38H67.9731V30.1797ZM72.5439 38L70.6426 34.4551L71.7222 34.4497L73.6504 37.9355V38H72.5439ZM75.8633 30.1797V38H74.8267V30.1797H75.8633ZM74.7568 28.9229C74.7568 28.7653 74.8052 28.631 74.9019 28.52C75.0021 28.409 75.1489 28.3535 75.3423 28.3535C75.5321 28.3535 75.6771 28.409 75.7773 28.52C75.8812 28.631 75.9331 28.7653 75.9331 28.9229C75.9331 29.0804 75.8812 29.2147 75.7773 29.3257C75.6771 29.4331 75.5321 29.4868 75.3423 29.4868C75.1489 29.4868 75.0021 29.4331 74.9019 29.3257C74.8052 29.2147 74.7568 29.0804 74.7568 28.9229ZM83.7642 30.1797V38H82.7222L78.7852 31.9683V38H77.7485V30.1797H78.7852L82.7383 36.2275V30.1797H83.7642Z" fill="white"/>
<path d="M55.2725 15.5508V19.623C55.1211 19.8232 54.8843 20.043 54.562 20.2822C54.2446 20.5166 53.8223 20.7192 53.2949 20.8901C52.7676 21.061 52.1108 21.1465 51.3247 21.1465C50.6558 21.1465 50.043 21.0342 49.4863 20.8096C48.9297 20.5801 48.4487 20.2456 48.0435 19.8062C47.6431 19.3667 47.333 18.832 47.1133 18.2021C46.8936 17.5674 46.7837 16.8447 46.7837 16.0342V15.2944C46.7837 14.4888 46.8838 13.771 47.084 13.1411C47.2891 12.5063 47.582 11.9692 47.9629 11.5298C48.3438 11.0903 48.8027 10.7583 49.3398 10.5337C49.8818 10.3042 50.4946 10.1895 51.1782 10.1895C52.0522 10.1895 52.7749 10.3359 53.3462 10.6289C53.9224 10.917 54.3667 11.3174 54.6792 11.8301C54.9917 12.3428 55.1895 12.9287 55.2725 13.5879H53.4707C53.4121 13.2168 53.2974 12.8848 53.1265 12.5918C52.9604 12.2988 52.7212 12.0693 52.4087 11.9033C52.1011 11.7324 51.7007 11.647 51.2075 11.647C50.7827 11.647 50.4092 11.7275 50.0869 11.8887C49.7646 12.0498 49.4961 12.2866 49.2812 12.5991C49.0713 12.9116 48.9126 13.2925 48.8052 13.7417C48.6978 14.1909 48.644 14.7036 48.644 15.2798V16.0342C48.644 16.6201 48.7051 17.1401 48.8271 17.5942C48.9541 18.0483 49.1348 18.4316 49.3691 18.7441C49.6084 19.0566 49.8989 19.2935 50.2407 19.4546C50.5825 19.6108 50.9683 19.689 51.3979 19.689C51.8179 19.689 52.1621 19.6548 52.4307 19.5864C52.6992 19.5132 52.9116 19.4277 53.0679 19.3301C53.229 19.2275 53.3535 19.1299 53.4414 19.0371V16.9204H51.2222V15.5508H55.2725ZM56.7959 17.1255V16.957C56.7959 16.3857 56.8789 15.856 57.0449 15.3677C57.2109 14.8745 57.4502 14.4473 57.7627 14.0859C58.0801 13.7197 58.4658 13.4365 58.9199 13.2363C59.3789 13.0312 59.8965 12.9287 60.4727 12.9287C61.0537 12.9287 61.5713 13.0312 62.0254 13.2363C62.4844 13.4365 62.8726 13.7197 63.1899 14.0859C63.5073 14.4473 63.749 14.8745 63.915 15.3677C64.0811 15.856 64.1641 16.3857 64.1641 16.957V17.1255C64.1641 17.6968 64.0811 18.2266 63.915 18.7148C63.749 19.2031 63.5073 19.6304 63.1899 19.9966C62.8726 20.3579 62.4868 20.6411 62.0327 20.8462C61.5786 21.0464 61.0635 21.1465 60.4873 21.1465C59.9062 21.1465 59.3862 21.0464 58.9272 20.8462C58.4731 20.6411 58.0874 20.3579 57.77 19.9966C57.4526 19.6304 57.2109 19.2031 57.0449 18.7148C56.8789 18.2266 56.7959 17.6968 56.7959 17.1255ZM58.561 16.957V17.1255C58.561 17.4819 58.5977 17.8188 58.6709 18.1362C58.7441 18.4536 58.8589 18.7319 59.0151 18.9712C59.1714 19.2104 59.3716 19.3984 59.6157 19.5352C59.8599 19.6719 60.1504 19.7402 60.4873 19.7402C60.8145 19.7402 61.0977 19.6719 61.3369 19.5352C61.5811 19.3984 61.7812 19.2104 61.9375 18.9712C62.0938 18.7319 62.2085 18.4536 62.2817 18.1362C62.3599 17.8188 62.3989 17.4819 62.3989 17.1255V16.957C62.3989 16.6055 62.3599 16.2734 62.2817 15.9609C62.2085 15.6436 62.0913 15.3628 61.9302 15.1187C61.7739 14.8745 61.5737 14.6841 61.3296 14.5474C61.0903 14.4058 60.8047 14.335 60.4727 14.335C60.1406 14.335 59.8525 14.4058 59.6084 14.5474C59.3691 14.6841 59.1714 14.8745 59.0151 15.1187C58.8589 15.3628 58.7441 15.6436 58.6709 15.9609C58.5977 16.2734 58.561 16.6055 58.561 16.957ZM65.3066 17.1255V16.957C65.3066 16.3857 65.3896 15.856 65.5557 15.3677C65.7217 14.8745 65.9609 14.4473 66.2734 14.0859C66.5908 13.7197 66.9766 13.4365 67.4307 13.2363C67.8896 13.0312 68.4072 12.9287 68.9834 12.9287C69.5645 12.9287 70.082 13.0312 70.5361 13.2363C70.9951 13.4365 71.3833 13.7197 71.7007 14.0859C72.0181 14.4473 72.2598 14.8745 72.4258 15.3677C72.5918 15.856 72.6748 16.3857 72.6748 16.957V17.1255C72.6748 17.6968 72.5918 18.2266 72.4258 18.7148C72.2598 19.2031 72.0181 19.6304 71.7007 19.9966C71.3833 20.3579 70.9976 20.6411 70.5435 20.8462C70.0894 21.0464 69.5742 21.1465 68.998 21.1465C68.417 21.1465 67.897 21.0464 67.438 20.8462C66.9839 20.6411 66.5981 20.3579 66.2808 19.9966C65.9634 19.6304 65.7217 19.2031 65.5557 18.7148C65.3896 18.2266 65.3066 17.6968 65.3066 17.1255ZM67.0718 16.957V17.1255C67.0718 17.4819 67.1084 17.8188 67.1816 18.1362C67.2549 18.4536 67.3696 18.7319 67.5259 18.9712C67.6821 19.2104 67.8823 19.3984 68.1265 19.5352C68.3706 19.6719 68.6611 19.7402 68.998 19.7402C69.3252 19.7402 69.6084 19.6719 69.8477 19.5352C70.0918 19.3984 70.292 19.2104 70.4482 18.9712C70.6045 18.7319 70.7192 18.4536 70.7925 18.1362C70.8706 17.8188 70.9097 17.4819 70.9097 17.1255V16.957C70.9097 16.6055 70.8706 16.2734 70.7925 15.9609C70.7192 15.6436 70.6021 15.3628 70.4409 15.1187C70.2847 14.8745 70.0845 14.6841 69.8403 14.5474C69.6011 14.4058 69.3154 14.335 68.9834 14.335C68.6514 14.335 68.3633 14.4058 68.1191 14.5474C67.8799 14.6841 67.6821 14.8745 67.5259 15.1187C67.3696 15.3628 67.2549 15.6436 67.1816 15.9609C67.1084 16.2734 67.0718 16.6055 67.0718 16.957ZM79.23 13.0752H80.834V20.7803C80.834 21.4932 80.6826 22.0986 80.3799 22.5967C80.0771 23.0947 79.6548 23.4731 79.1128 23.7319C78.5708 23.9956 77.9434 24.1274 77.2305 24.1274C76.9277 24.1274 76.5908 24.0835 76.2197 23.9956C75.8535 23.9077 75.4971 23.7661 75.1504 23.5708C74.8086 23.3804 74.5229 23.1289 74.2935 22.8164L75.1211 21.7764C75.4043 22.1133 75.7168 22.3599 76.0586 22.5161C76.4004 22.6724 76.7593 22.7505 77.1353 22.7505C77.5405 22.7505 77.8848 22.6748 78.168 22.5234C78.4561 22.377 78.6782 22.1597 78.8345 21.8716C78.9907 21.5835 79.0688 21.2319 79.0688 20.8169V14.8696L79.23 13.0752ZM73.8467 17.1255V16.9717C73.8467 16.3711 73.9199 15.8242 74.0664 15.3311C74.2129 14.833 74.4229 14.4058 74.6963 14.0493C74.9697 13.688 75.3018 13.4121 75.6924 13.2217C76.083 13.0264 76.5249 12.9287 77.0181 12.9287C77.5308 12.9287 77.9678 13.0215 78.3291 13.207C78.6953 13.3926 79.0005 13.6587 79.2446 14.0054C79.4888 14.3472 79.6792 14.7573 79.8159 15.2358C79.9575 15.7095 80.0625 16.2368 80.1309 16.8179V17.3086C80.0674 17.875 79.96 18.3926 79.8086 18.8613C79.6572 19.3301 79.457 19.7354 79.208 20.0771C78.959 20.4189 78.6514 20.6826 78.2852 20.8682C77.9238 21.0537 77.4966 21.1465 77.0034 21.1465C76.52 21.1465 76.083 21.0464 75.6924 20.8462C75.3066 20.646 74.9746 20.3652 74.6963 20.0039C74.4229 19.6426 74.2129 19.2178 74.0664 18.7295C73.9199 18.2363 73.8467 17.7017 73.8467 17.1255ZM75.6118 16.9717V17.1255C75.6118 17.4868 75.646 17.8237 75.7144 18.1362C75.7876 18.4487 75.8975 18.7246 76.0439 18.9639C76.1953 19.1982 76.3857 19.3838 76.6152 19.5205C76.8496 19.6523 77.1255 19.7183 77.4429 19.7183C77.8579 19.7183 78.1973 19.6304 78.4609 19.4546C78.7295 19.2788 78.9346 19.042 79.0762 18.7441C79.2227 18.4414 79.3252 18.1045 79.3838 17.7334V16.4077C79.3545 16.1196 79.2935 15.8511 79.2007 15.6021C79.1128 15.353 78.9932 15.1357 78.8418 14.9502C78.6904 14.7598 78.5 14.6133 78.2705 14.5107C78.041 14.4033 77.77 14.3496 77.4575 14.3496C77.1401 14.3496 76.8643 14.418 76.6299 14.5547C76.3955 14.6914 76.2026 14.8794 76.0513 15.1187C75.9048 15.3579 75.7949 15.6362 75.7217 15.9536C75.6484 16.271 75.6118 16.6104 75.6118 16.9717ZM84.5547 9.75V21H82.7822V9.75H84.5547ZM89.9819 21.1465C89.396 21.1465 88.8662 21.0513 88.3926 20.8608C87.9238 20.6655 87.5234 20.3945 87.1914 20.0479C86.8643 19.7012 86.6128 19.2935 86.437 18.8247C86.2612 18.356 86.1733 17.8506 86.1733 17.3086V17.0156C86.1733 16.3955 86.2637 15.834 86.4443 15.3311C86.625 14.8281 86.8765 14.3984 87.1987 14.042C87.521 13.6807 87.9019 13.4048 88.3413 13.2144C88.7808 13.0239 89.2568 12.9287 89.7695 12.9287C90.3359 12.9287 90.8315 13.0239 91.2563 13.2144C91.6812 13.4048 92.0327 13.6733 92.311 14.02C92.5942 14.3618 92.8042 14.7695 92.9409 15.2432C93.0825 15.7168 93.1533 16.2393 93.1533 16.8105V17.5649H87.0303V16.2979H91.4102V16.1587C91.4004 15.8413 91.3369 15.5435 91.2197 15.2651C91.1074 14.9868 90.9341 14.7622 90.6997 14.5913C90.4653 14.4204 90.1528 14.335 89.7622 14.335C89.4692 14.335 89.208 14.3984 88.9785 14.5254C88.7539 14.6475 88.5659 14.8257 88.4146 15.0601C88.2632 15.2944 88.146 15.5776 88.063 15.9097C87.9849 16.2368 87.9458 16.6055 87.9458 17.0156V17.3086C87.9458 17.6553 87.9922 17.9775 88.085 18.2754C88.1826 18.5684 88.3242 18.8247 88.5098 19.0444C88.6953 19.2642 88.9199 19.4375 89.1836 19.5645C89.4473 19.6865 89.7476 19.7476 90.0845 19.7476C90.5093 19.7476 90.8877 19.6621 91.2197 19.4912C91.5518 19.3203 91.8398 19.0786 92.084 18.7661L93.0142 19.667C92.8433 19.916 92.6211 20.1553 92.3477 20.3848C92.0742 20.6094 91.7397 20.7925 91.3442 20.9341C90.9536 21.0757 90.4995 21.1465 89.9819 21.1465ZM102.492 17.0229H99.7158V15.5654H102.492C102.975 15.5654 103.366 15.4873 103.664 15.3311C103.961 15.1748 104.179 14.96 104.315 14.6865C104.457 14.4082 104.528 14.0908 104.528 13.7344C104.528 13.3975 104.457 13.0825 104.315 12.7896C104.179 12.4917 103.961 12.2524 103.664 12.0718C103.366 11.8911 102.975 11.8008 102.492 11.8008H100.28V21H98.4414V10.3359H102.492C103.317 10.3359 104.018 10.4824 104.594 10.7754C105.175 11.0635 105.617 11.4639 105.919 11.9766C106.222 12.4844 106.374 13.0654 106.374 13.7197C106.374 14.4082 106.222 14.999 105.919 15.4922C105.617 15.9854 105.175 16.3638 104.594 16.6274C104.018 16.8911 103.317 17.0229 102.492 17.0229ZM109.735 9.75V21H107.963V9.75H109.735ZM116.137 19.4106V15.6313C116.137 15.3481 116.085 15.104 115.983 14.8989C115.88 14.6938 115.724 14.5352 115.514 14.4229C115.309 14.3105 115.05 14.2544 114.738 14.2544C114.45 14.2544 114.201 14.3032 113.991 14.4009C113.781 14.4985 113.617 14.6304 113.5 14.7964C113.383 14.9624 113.324 15.1504 113.324 15.3604H111.566C111.566 15.0479 111.642 14.7451 111.793 14.4521C111.945 14.1592 112.165 13.8979 112.453 13.6685C112.741 13.439 113.085 13.2583 113.485 13.1265C113.886 12.9946 114.335 12.9287 114.833 12.9287C115.429 12.9287 115.956 13.0288 116.415 13.229C116.879 13.4292 117.243 13.7319 117.506 14.1372C117.775 14.5376 117.909 15.0405 117.909 15.646V19.1689C117.909 19.5303 117.934 19.855 117.982 20.1431C118.036 20.4263 118.112 20.6729 118.209 20.8828V21H116.4C116.317 20.8096 116.251 20.5679 116.203 20.2749C116.159 19.9771 116.137 19.689 116.137 19.4106ZM116.393 16.1807L116.408 17.272H115.141C114.813 17.272 114.525 17.3037 114.276 17.3672C114.027 17.4258 113.82 17.5137 113.654 17.6309C113.488 17.748 113.363 17.8896 113.28 18.0557C113.197 18.2217 113.156 18.4097 113.156 18.6196C113.156 18.8296 113.205 19.0225 113.302 19.1982C113.4 19.3691 113.542 19.5034 113.727 19.6011C113.917 19.6987 114.147 19.7476 114.416 19.7476C114.777 19.7476 115.092 19.6743 115.36 19.5278C115.634 19.3765 115.849 19.1934 116.005 18.9785C116.161 18.7588 116.244 18.5513 116.254 18.356L116.825 19.1396C116.767 19.3398 116.667 19.5547 116.525 19.7842C116.383 20.0137 116.198 20.2334 115.968 20.4434C115.744 20.6484 115.473 20.8169 115.155 20.9487C114.843 21.0806 114.481 21.1465 114.071 21.1465C113.554 21.1465 113.092 21.0439 112.687 20.8389C112.282 20.6289 111.964 20.3481 111.735 19.9966C111.505 19.6401 111.391 19.2373 111.391 18.7881C111.391 18.3682 111.469 17.9971 111.625 17.6748C111.786 17.3477 112.021 17.0742 112.328 16.8545C112.641 16.6348 113.021 16.4688 113.471 16.3564C113.92 16.2393 114.433 16.1807 115.009 16.1807H116.393ZM121.938 20.1357L124.091 13.0752H125.98L122.802 22.2085C122.729 22.4038 122.633 22.6162 122.516 22.8457C122.399 23.0752 122.245 23.2925 122.055 23.4976C121.869 23.7075 121.637 23.876 121.359 24.0029C121.081 24.1348 120.744 24.2007 120.348 24.2007C120.192 24.2007 120.041 24.186 119.894 24.1567C119.752 24.1323 119.618 24.1055 119.491 24.0762L119.484 22.7285C119.533 22.7334 119.591 22.7383 119.66 22.7432C119.733 22.748 119.792 22.7505 119.835 22.7505C120.128 22.7505 120.373 22.7139 120.568 22.6406C120.763 22.5723 120.922 22.46 121.044 22.3037C121.171 22.1475 121.278 21.9375 121.366 21.6738L121.938 20.1357ZM120.722 13.0752L122.604 19.0078L122.919 20.8682L121.696 21.1831L118.817 13.0752H120.722Z" fill="white"/>
<rect opacity="0.01" x="12" y="12" width="24" height="24" fill="#3C4D53"/>
<path fill-rule="evenodd" clip-rule="evenodd" d="M13 13.6442V34.3582C13 35.0792 13.4168 35.7026 14.0224 36L26.0093 23.9977L14.0272 12C13.4191 12.2965 13 12.9213 13 13.6442ZM16.709 35.3778L29.8106 27.8038L27.0419 25.0315L16.709 35.3778ZM33.8831 22.549C34.3189 22.883 34.6 23.4093 34.6 24.0012C34.6 24.5842 34.3274 25.1034 33.9028 25.438L31.1199 27.0469L28.0745 23.9977L31.1178 20.9504L33.8831 22.549ZM29.8086 20.1935L16.7167 12.6251L27.0419 22.9637L29.8086 20.1935Z" fill="white"/>
<mask id="mask1_310_1123" style="mask-type:luminance" maskUnits="userSpaceOnUse" x="13" y="12" width="22" height="24">
<path fill-rule="evenodd" clip-rule="evenodd" d="M13 13.6442V34.3582C13 35.0792 13.4168 35.7026 14.0224 36L26.0093 23.9977L14.0272 12C13.4191 12.2965 13 12.9213 13 13.6442ZM16.709 35.3778L29.8106 27.8038L27.0419 25.0315L16.709 35.3778ZM33.8831 22.549C34.3189 22.883 34.6 23.4093 34.6 24.0012C34.6 24.5842 34.3274 25.1034 33.9028 25.438L31.1199 27.0469L28.0745 23.9977L31.1178 20.9504L33.8831 22.549ZM29.8086 20.1935L16.7167 12.6251L27.0419 22.9637L29.8086 20.1935Z" fill="white"/>
</mask>
<g mask="url(#mask1_310_1123)">
<rect x="12" y="12" width="24" height="24" fill="white"/>
</g>
</g>
</g>
<defs>
<clipPath id="clip0_310_1123">
<rect width="150" height="48" fill="white"/>
</clipPath>
</defs>
</svg>
