<svg width="45" height="44" viewBox="0 0 45 44" fill="none" xmlns="http://www.w3.org/2000/svg">
<ellipse cx="22.5012" cy="21.551" rx="21.5051" ry="21.551" fill="white"/>
<mask id="mask0_310_1197" style="mask-type:luminance" maskUnits="userSpaceOnUse" x="0" y="0" width="45" height="44">
<ellipse cx="22.5012" cy="21.551" rx="21.5051" ry="21.551" fill="white"/>
</mask>
<g mask="url(#mask0_310_1197)">
<rect x="0.996094" width="43.0103" height="43.102" fill="white"/>
<path fill-rule="evenodd" clip-rule="evenodd" d="M27.0736 11.4702H17.9286C14.8983 11.4702 12.4417 13.9321 12.4417 16.9689V26.1334C12.4417 29.1702 14.8983 31.6321 17.9286 31.6321H27.0736C30.104 31.6321 32.5606 29.1702 32.5606 26.1334V16.9689C32.5606 13.9321 30.104 11.4702 27.0736 11.4702ZM14.2708 16.9689C14.2708 14.9443 15.9085 13.3031 17.9288 13.3031H27.0738C29.094 13.3031 30.7317 14.9443 30.7317 16.9689V26.1334C30.7317 28.1579 29.094 29.7991 27.0738 29.7991H17.9288C15.9085 29.7991 14.2708 28.1579 14.2708 26.1334V16.9689ZM28.9029 16.0524C28.9029 16.5586 28.4935 16.9689 27.9884 16.9689C27.4833 16.9689 27.0739 16.5586 27.0739 16.0524C27.0739 15.5463 27.4833 15.136 27.9884 15.136C28.4935 15.136 28.9029 15.5463 28.9029 16.0524ZM20.0516 20.814C20.584 19.7539 21.7339 19.1567 22.9033 19.3305C24.0976 19.508 25.0369 20.4481 25.2143 21.6474C25.3882 22.8221 24.7905 23.9749 23.7338 24.5079C22.6775 25.0408 21.3991 24.8349 20.5624 23.9963C19.7253 23.1574 19.519 21.8744 20.0516 20.814ZM23.1235 17.8492C21.3129 17.5801 19.5353 18.5052 18.7133 20.1418C17.8915 21.7781 18.2092 23.7583 19.5023 25.0542C20.7958 26.3504 22.7736 26.6696 24.4083 25.8451C26.0425 25.0207 26.9639 23.2399 26.6958 21.4282C26.4221 19.5781 24.9721 18.1239 23.1235 17.8492Z" fill="#833AB4"/>
</g>
</svg>
