<svg width="44" height="44" viewBox="0 0 44 44" fill="none" xmlns="http://www.w3.org/2000/svg">
<ellipse cx="22.4949" cy="21.551" rx="21.5051" ry="21.551" fill="white"/>
<mask id="mask0_310_1216" style="mask-type:luminance" maskUnits="userSpaceOnUse" x="0" y="0" width="44" height="44">
<ellipse cx="22.4949" cy="21.551" rx="21.5051" ry="21.551" fill="white"/>
</mask>
<g mask="url(#mask0_310_1216)">
<rect x="0.989746" width="43.0103" height="43.102" fill="white"/>
<path fill-rule="evenodd" clip-rule="evenodd" d="M15.9236 17.4351C14.5627 17.4351 13.4595 16.3295 13.4595 14.9657C13.4595 13.6019 14.5627 12.4963 15.9236 12.4963C17.2845 12.4963 18.3877 13.6019 18.3877 14.9657C18.3877 16.3295 17.2845 17.4351 15.9236 17.4351ZM31.5298 23.1965C31.5298 20.0143 28.9556 17.4346 25.7802 17.4346C22.6047 17.4346 20.0305 20.0143 20.0305 23.1965V28.9584C20.0305 29.413 20.3983 29.7816 20.8519 29.7816H24.1374C24.591 29.7816 24.9588 29.413 24.9588 28.9584V23.1965C24.9588 22.7419 25.3265 22.3734 25.7802 22.3734C26.2338 22.3734 26.6015 22.7419 26.6015 23.1965V28.9584C26.6015 29.413 26.9693 29.7816 27.4229 29.7816H30.7084C31.1621 29.7816 31.5298 29.413 31.5298 28.9584V23.1965ZM29.887 23.1966V28.1354H28.2443V23.1966C28.2443 21.8328 27.1411 20.7272 25.7802 20.7272C24.4192 20.7272 23.316 21.8328 23.316 23.1966V28.1354H21.6733V23.1966C21.6733 20.9236 23.512 19.081 25.7802 19.081C28.0483 19.081 29.887 20.9236 29.887 23.1966ZM14.2809 18.258H17.5664C18.02 18.258 18.3877 18.6265 18.3877 19.0811V28.9587C18.3877 29.4133 18.02 29.7818 17.5664 29.7818H14.2809C13.8272 29.7818 13.4595 29.4133 13.4595 28.9587V19.0811C13.4595 18.6265 13.8272 18.258 14.2809 18.258ZM15.1023 28.1356V19.9043H16.745V28.1356H15.1023ZM16.745 14.9661C16.745 15.4207 16.3772 15.7892 15.9236 15.7892C15.4699 15.7892 15.1022 15.4207 15.1022 14.9661C15.1022 14.5115 15.4699 14.1429 15.9236 14.1429C16.3772 14.1429 16.745 14.5115 16.745 14.9661Z" fill="#0077B5"/>
</g>
</svg>
