<svg width="128" height="40" viewBox="0 0 128 40" xmlns="http://www.w3.org/2000/svg"><title>Logo / Normal</title><g fill="none"><path d="M127.184 13.861h-1.972v-3.94a.777.777 0 0 0-.788-.787h-2.17a.777.777 0 0 0-.788.788v3.94h-2.07a.777.777 0 0 0-.79.787v1.871c0 .394.297.788.79.788h2.07v5.515a3.427 3.427 0 0 0 3.45 3.447c.296 0 .69 0 .987-.099.493-.098.69-.394.69-.787v-2.167a.777.777 0 0 0-.789-.788h-.099c-.295 0-.591-.295-.591-.59v-4.531h1.972a.777.777 0 0 0 .788-.788v-1.87c.099-.492-.197-.788-.69-.788M110.62 18.49c.297-.887 1.085-1.576 2.071-1.576.986 0 1.873.69 2.07 1.576h-4.14zm7.691 1.576v-.591c0-3.25-2.662-5.81-5.817-5.81-3.254 0-5.817 2.658-5.817 5.81v.394c0 3.446 2.958 6.302 6.606 6.302 1.38 0 2.662-.394 3.746-1.083.197-.098.296-.394.296-.59 0-.1 0-.198-.099-.395-.098-.197-.591-1.083-.69-1.181-.197-.296-.394-.394-.69-.394-.098 0-.296 0-.394.098-.493.296-1.183.394-1.775.492-1.577.099-2.662-.689-3.253-1.772v-.099h6.802c.592-.098.986-.59 1.085-1.181zM104.212 9.134h-2.169a.777.777 0 0 0-.789.788v2.068c0 .394.296.788.79.788h2.168a.777.777 0 0 0 .789-.788V9.922a.777.777 0 0 0-.789-.788zm.789 5.515a.777.777 0 0 0-.789-.788h-2.169a.777.777 0 0 0-.789.788v12.507c0 .296-.295.591-.591.591h-.099a.777.777 0 0 0-.788.788v2.167c0 .394.197.59.69.787.296.099.69.099.986.099 1.873 0 3.45-1.576 3.45-3.447V14.65h.099zm-5.324 10.833c-.099-.098-.099-.098-.099-.197l-.098-.197c0-.098-.099-.197-.099-.197l-.197-.295-.197-.296-.197-.295c-.099-.099-.198-.197-.198-.394-.098-.099-.197-.197-.197-.394-.098-.099-.197-.295-.197-.394-.098-.098-.197-.295-.197-.394-.099-.098-.197-.295-.197-.394-.099-.098-.197-.197-.197-.394-.099-.098-.198-.197-.198-.394l-.197-.295-.197-.296-.197-.295-.099-.197-.098-.197s0-.098-.099-.098c0 0-.099-.099 0-.099v-.098l.099-.099.098-.197c.099-.098.099-.197.197-.197l.198-.295.197-.296.197-.295.197-.394.197-.394c.099-.099.198-.295.198-.394.098-.098.197-.295.197-.394l.197-.394.197-.394c.099-.098.099-.197.197-.394l.197-.295.198-.296.197-.295.098-.197.099-.197s0-.098.099-.098c.197-.197 0-.493-.296-.493h-2.958c-.296 0-.592.099-.69.394l-1.775 2.856c-.098.099-.197.197-.296.197-.197 0-.394-.197-.394-.295V9.922a.777.777 0 0 0-.789-.788H90.41a.777.777 0 0 0-.788.788v15.363c0 .394.295.788.788.788h2.17a.777.777 0 0 0 .788-.788V23.02c0-.197.197-.295.394-.295l.296.098 1.775 2.856c.197.197.394.394.69.394h2.958a.473.473 0 0 0 .197-.591m-18.142-2.856a2.65 2.65 0 0 1-2.662-2.659 2.65 2.65 0 0 1 2.662-2.659 2.65 2.65 0 0 1 2.662 2.659 2.65 2.65 0 0 1-2.662 2.66m6.211-2.365v-.295a6.287 6.287 0 0 0-6.31-6.303c-3.549 0-6.31 2.758-6.31 6.303s2.761 6.303 6.31 6.303c.986 0 1.874-.197 2.662-.591 0 .394.395.69.69.69h2.17a.777.777 0 0 0 .788-.788v-5.319M74.339 22.43c-.395 0-.69-.296-.69-.592V9.922a.777.777 0 0 0-.79-.788h-2.168a.777.777 0 0 0-.789.788v12.901a3.427 3.427 0 0 0 3.45 3.447c.297 0 .691 0 .987-.099.493-.098.69-.394.69-.787v-2.167c0-.492-.296-.788-.69-.788m-6.803-5.318c-.493-1.477-1.775-2.659-3.254-3.151-1.774-.591-3.845-.197-5.324.886l-.197.098-.197-.098c-1.479-1.182-3.55-1.576-5.324-.886-1.479.492-2.662 1.674-3.254 3.151a13.355 13.355 0 0 0-.295 2.856v5.121c0 .69.197.985.788.985h1.972c.296 0 .493-.099.69-.197.198-.197.296-.59.296-.886v-4.924c0-.69 0-1.38.394-1.97.296-.493.888-.69 1.38-.69.592 0 1.085.296 1.381.788.394.493.394 1.182.394 1.872v5.12c0 .296 0 .591.198.788.098.099.295.099.493.197h2.366c.197 0 .394 0 .493-.197.197-.197.197-.492.197-.787v-5.121c0-.591 0-1.28.394-1.872a1.574 1.574 0 0 1 1.38-.788c.592 0 1.085.296 1.38.69.395.59.395 1.28.395 1.97v4.924c0 .295 0 .59.296.886.197.197.493.197.69.197h1.972c.493 0 .69-.296.789-.985v-5.121c-.099-.985-.099-1.97-.493-2.856M40.324 18.49c.296-.887 1.085-1.576 2.07-1.576.987 0 1.874.69 2.071 1.576h-4.14zm7.69 1.576v-.591c0-3.25-2.661-5.81-5.816-5.81-3.254 0-5.817 2.658-5.817 5.81v.394c0 3.446 2.957 6.302 6.605 6.302 1.38 0 2.662-.394 3.747-1.083.197-.098.296-.394.296-.59 0-.1 0-.198-.099-.395 0-.197-.493-.985-.592-1.181-.098-.296-.394-.394-.69-.394-.098 0-.295 0-.394.098-.493.296-1.183.394-1.775.492-1.577.099-2.662-.689-3.253-1.772v-.099h6.803c.493-.098.887-.59.986-1.181z" fill="#0E0E0E"/><path d="M14.887 1.65L1.38 10.906V32.08h10.057a47.064 47.064 0 0 1-.296-1.575c-.197-1.084-.197-2.167-.493-3.25-.296-.985.197-1.773.592-2.56l.197-.395c.098-.197.296-.394.493-.59 1.281-1.182 3.549-1.576 5.225-.788 1.282.492 1.873 2.068 1.972 3.348.197 1.97.296 3.94-.394 5.81h9.76V10.907L14.887 1.649z" fill="#09E524"/><path d="M20.902 26.565v-.394c-.099-1.575-.888-3.053-2.07-4.037-1.184-1.084-2.761-1.576-4.339-1.478-3.056.197-5.521 2.856-5.521 5.91 0 1.28.197 2.56.69 4.037H2.761V11.596l12.126-8.371 12.226 8.371v19.106H20.21c.296-1.084.69-2.758.69-4.137m8.282-16.742L15.676.468c-.493-.296-1.084-.296-1.479 0L.592 9.823C.197 10.02 0 10.414 0 10.907V32.08c0 .788.592 1.38 1.38 1.38h10.155c.79 0 1.38-.592 1.38-1.38 0-.098 0-.295-.098-.394l-.099-.295c-.493-1.182-1.084-2.659-1.084-4.136v-.296c-.099-.886.197-1.772.789-2.363a3.423 3.423 0 0 1 2.267-1.182c.888-.099 1.676.197 2.366.788a3.417 3.417 0 0 1 1.184 2.265v.295c.098 1.97-1.184 4.826-1.38 5.121l-1.874 3.546-.296-.591c-.197-.296-.493-.591-.788-.69-.296-.098-.69-.098-.986.099-.296.197-.592.492-.69.788-.1.295-.1.69.098.985l1.479 2.757c.197.394.69.69 1.183.69.493 0 .986-.296 1.183-.69l2.958-5.515h9.366c.789 0 1.38-.59 1.38-1.379V10.907c-.098-.493-.295-.887-.69-1.084" fill="#000"/></g></svg>