<svg width="45" height="44" viewBox="0 0 45 44" fill="none" xmlns="http://www.w3.org/2000/svg">
<ellipse cx="22.4968" cy="21.551" rx="21.5051" ry="21.551" fill="white"/>
<mask id="mask0_310_1211" style="mask-type:luminance" maskUnits="userSpaceOnUse" x="0" y="0" width="45" height="44">
<ellipse cx="22.4968" cy="21.551" rx="21.5051" ry="21.551" fill="white"/>
</mask>
<g mask="url(#mask0_310_1211)">
<rect x="0.991699" width="43.0103" height="43.102" fill="white"/>
<path d="M19.0102 29.7822C18.7705 29.7822 18.573 29.611 18.5401 29.3751C18.4214 28.5599 18.2755 27.0695 18.5744 25.8054L19.7074 20.9924C19.6143 20.7605 19.4378 20.2262 19.4378 19.5278C19.4378 18.0142 20.3586 16.8288 21.534 16.8288C22.4756 16.8288 23.1079 17.5182 23.1079 18.5443C23.1079 19.1258 22.8871 19.8431 22.6532 20.6025C22.5277 21.011 22.3975 21.4328 22.3019 21.8366C22.2239 22.1683 22.2873 22.4849 22.4802 22.7294C22.686 22.9899 23.0141 23.1389 23.3796 23.1389C24.7844 23.1389 25.885 21.1837 25.885 18.6869C25.885 16.7691 24.5826 15.5779 22.4859 15.5779C19.8312 15.5779 18.3982 17.6261 18.3982 19.5532C18.3982 20.194 18.3982 20.3201 18.6245 20.8371C18.7669 21.1626 18.9272 21.2889 18.8267 21.6648C18.8024 21.7563 18.7618 21.9168 18.7236 22.0698L18.6423 22.3897C18.5339 22.8078 18.1138 23.0215 17.7115 22.8561C16.4148 22.3264 15.9258 21.1687 15.9258 19.3278C15.9257 16.3746 18.472 13.3196 22.7327 13.3196C26.533 13.3196 28.8037 16.1362 28.8037 18.8592C28.8037 22.6583 26.6054 25.4155 23.5768 25.4155C22.8204 25.4155 22.0637 25.1335 21.5469 24.6936C21.3832 25.3416 21.1514 26.2551 21.0811 26.512C20.7284 27.7943 19.7941 29.0789 19.4089 29.5717C19.2984 29.7147 19.16 29.7822 19.0102 29.7822Z" fill="#BD081C"/>
</g>
</svg>
