<svg width="14" height="14" xmlns="http://www.w3.org/2000/svg">
    <g fill="#FFF" fill-rule="nonzero">
        <path d="M11.894 0H2.106A2.106 2.106 0 0 0 0 2.106v9.788C0 13.057.943 14 2.106 14h9.788A2.106 2.106 0 0 0 14 11.894V2.106A2.106 2.106 0 0 0 11.894 0zm.833 11.894c0 .46-.373.833-.833.833H2.106a.834.834 0 0 1-.833-.833v-2.05L4.74 7a.344.344 0 0 1 .522.038l.42.56a1.604 1.604 0 0 0 2.59-.045l1.272-1.788a.356.356 0 0 1 .338-.14c.128.02.234.112.273.236l2.546 4.493.025 1.54zm0-4.124-1.355-2.386a1.604 1.604 0 0 0-1.273-1.025 1.623 1.623 0 0 0-1.559.636L7.267 6.784a.344.344 0 0 1-.28.146.388.388 0 0 1-.286-.14l-.42-.56a1.642 1.642 0 0 0-1.19-.624 1.585 1.585 0 0 0-1.216.433L1.273 8.196v-6.09c0-.46.373-.833.833-.833h9.788c.46 0 .833.373.833.833V7.77z"/>
        <circle cx="3.5" cy="3.5" r="1"/>
    </g>
</svg>
