<svg width="120" height="40" viewBox="0 0 120 40" fill="none" xmlns="http://www.w3.org/2000/svg">
<g clip-path="url(#clip0_5_3392)">
<path d="M43.1106 27.2659C43.4236 27.2659 43.6771 27.5167 43.6825 27.8297V28.3071H44.0494C44.303 28.3071 44.508 28.5149 44.508 28.7711C44.508 29.022 44.3084 29.227 44.0629 29.2351H43.6825V33.4002C43.6825 33.7212 43.4262 33.9802 43.1106 33.9802C42.7977 33.9802 42.5468 33.7293 42.5387 33.4164V27.8459C42.5387 27.5248 42.795 27.2659 43.1106 27.2659ZM62.5494 28.1911C64.0466 28.1911 65.274 29.3538 65.4008 30.8321C65.4062 30.8644 65.4116 30.8968 65.4116 30.9319V33.2599C65.4116 33.5809 65.1553 33.8399 64.8397 33.8399C64.5672 33.8399 64.3379 33.6457 64.2813 33.3894C63.8011 33.759 63.2022 33.9802 62.5494 33.9802C60.9686 33.9802 59.69 32.6853 59.69 31.0856C59.6873 29.4887 60.9659 28.1911 62.5494 28.1911ZM38.4114 28.1183C39.4905 28.1183 40.4643 28.7307 40.9526 29.6802C41.0982 29.9635 40.9876 30.3114 40.7071 30.4598C40.4292 30.6055 40.092 30.5003 39.9437 30.2251L39.9356 30.2116C39.6415 29.6397 39.0589 29.2729 38.4114 29.2729C37.4646 29.2729 36.6958 30.0498 36.6958 31.0101C36.6958 31.9678 37.4646 32.7447 38.4114 32.7447C39.0535 32.7447 39.628 32.3859 39.9275 31.8275L39.9383 31.8086C40.0839 31.5254 40.4292 31.4148 40.7098 31.5631C40.9903 31.7115 41.0982 32.0595 40.9526 32.3427C40.4643 33.2923 39.4932 33.9019 38.4114 33.9019C36.8307 33.9019 35.5493 32.6071 35.5493 31.0074C35.5493 29.4158 36.8307 28.1183 38.4114 28.1183ZM31.163 28.7334C31.2628 29.0301 31.1091 29.3538 30.8177 29.4617L30.8043 29.4671C30.7827 29.4752 30.7584 29.4833 30.7368 29.4914C30.1487 29.7207 29.7252 30.2656 29.6497 30.9022C29.647 30.9238 29.6443 30.9481 29.6416 30.9723C29.6389 30.9966 29.6389 31.0182 29.6389 31.0425C29.6389 31.0641 29.6362 31.0883 29.6362 31.1126C29.6362 31.1369 29.6362 31.1585 29.6389 31.1828C29.6416 31.2043 29.6416 31.2286 29.6443 31.2529C29.647 31.2745 29.647 31.2988 29.6524 31.323C29.7306 31.9866 30.1865 32.5477 30.8069 32.7582C31.1064 32.8607 31.2682 33.1871 31.1684 33.4919C31.0659 33.794 30.7422 33.9586 30.4428 33.8561C29.4042 33.5027 28.6462 32.572 28.5167 31.4606C28.5113 31.4228 28.5086 31.3824 28.5059 31.3446C28.5032 31.3069 28.5005 31.2691 28.4978 31.2313C28.4951 31.1936 28.4951 31.1531 28.4951 31.1153C28.4951 31.0776 28.4951 31.0398 28.4978 31.002C28.5005 30.9643 28.5005 30.9238 28.5059 30.886C28.5086 30.8483 28.514 30.8078 28.5167 30.77C28.6435 29.7045 29.3449 28.7981 30.3268 28.415C30.3645 28.4016 30.4023 28.3881 30.4428 28.3746C30.7368 28.2694 31.0605 28.4312 31.163 28.7334ZM32.2663 28.3692C32.3041 28.3827 32.3446 28.3962 32.3796 28.4123C33.3238 28.7792 34.0144 29.6343 34.1762 30.6513C34.1816 30.6891 34.187 30.7296 34.1924 30.7673C34.1978 30.8051 34.2005 30.8456 34.2032 30.8833C34.2059 30.9211 34.2086 30.9589 34.2113 30.9966C34.2113 31.0344 34.214 31.0749 34.214 31.1126C34.214 31.1504 34.214 31.1909 34.2113 31.2286C34.2086 31.2664 34.2086 31.3042 34.2032 31.3419C34.2005 31.3797 34.1978 31.4175 34.1924 31.4552C34.187 31.493 34.1816 31.5334 34.1762 31.5712C34.0063 32.6314 33.2671 33.5108 32.269 33.8507C31.9696 33.9532 31.6459 33.7913 31.5434 33.4865C31.4436 33.1898 31.5973 32.8661 31.8887 32.7582L31.9022 32.7528C32.501 32.5477 32.9461 32.0217 33.0459 31.3851C33.0486 31.3635 33.054 31.3392 33.0567 31.3149C33.0594 31.2934 33.0621 31.2691 33.0648 31.2475C33.0675 31.2259 33.0675 31.2016 33.0675 31.1801C33.0675 31.1558 33.0702 31.1315 33.0702 31.1099C33.0702 31.0857 33.0702 31.0614 33.0675 31.0398C33.0675 31.0182 33.0648 30.9939 33.0648 30.9697C33.0621 30.9454 33.0621 30.9238 33.0567 30.8995C33.054 30.8752 33.0513 30.8537 33.0486 30.8294C32.9515 30.2197 32.5388 29.7072 31.9723 29.486C31.9561 29.4806 31.9426 29.4752 31.9264 29.4698L31.9049 29.4617C31.6054 29.3592 31.4436 29.0328 31.5461 28.728C31.6432 28.4312 31.9669 28.2667 32.2663 28.3692ZM51.1279 31.2016C51.43 31.3015 51.5918 31.6252 51.492 31.9273C51.4785 31.9651 51.465 32.0028 51.4489 32.0406C51.082 32.9847 50.2269 33.6753 49.2099 33.8372C49.1721 33.8426 49.1316 33.848 49.0939 33.8534C49.0561 33.8588 49.0156 33.8615 48.9779 33.8642C48.9401 33.8669 48.9023 33.8696 48.8646 33.8696C48.8268 33.8723 48.789 33.8723 48.7486 33.8723C48.7108 33.8723 48.6704 33.8723 48.6326 33.8696C48.5948 33.8696 48.5571 33.8669 48.5193 33.8642C48.4815 33.8615 48.4411 33.8561 48.4033 33.8534C48.3655 33.848 48.3251 33.8426 48.2873 33.8372C47.2271 33.6672 46.3477 32.9308 46.0078 31.93C45.9053 31.6306 46.0672 31.3068 46.372 31.2043C46.6714 31.1045 46.9925 31.2583 47.1004 31.5496L47.1058 31.5631C47.3108 32.162 47.8395 32.6071 48.4734 32.7069C48.495 32.7096 48.5193 32.715 48.5436 32.715C48.5651 32.7177 48.5894 32.7204 48.6137 32.7231C48.6353 32.7258 48.6596 32.7258 48.6811 32.7258C48.7027 32.7258 48.727 32.7285 48.7513 32.7285C48.7756 32.7285 48.7998 32.7285 48.8214 32.7258L48.8916 32.7231C48.9131 32.7204 48.9374 32.7204 48.9617 32.715C48.9833 32.7123 49.0075 32.7096 49.0318 32.7069C49.6415 32.6098 50.154 32.1971 50.3752 31.6279L50.3914 31.582L50.3995 31.5604C50.4966 31.261 50.8257 31.1018 51.1279 31.2016ZM58.3951 28.2694C58.6649 28.4231 58.762 28.7684 58.6163 29.0463L58.6083 29.0598L56.0806 33.5485C55.8648 33.9343 55.3172 33.937 55.0933 33.562L55.0852 33.5485L52.5576 29.0598C52.4011 28.7819 52.4982 28.4285 52.7707 28.2694C53.0431 28.1129 53.383 28.2046 53.5449 28.4744L53.553 28.4879L55.5843 32.0945L57.6155 28.4879C57.772 28.2073 58.12 28.1102 58.3951 28.2694ZM69.787 28.0994C71.3112 28.0994 72.5575 29.3052 72.6438 30.824C72.6465 30.8456 72.6465 30.8644 72.6492 30.886V33.214C72.6492 33.5351 72.3929 33.794 72.0773 33.794C71.7644 33.794 71.5135 33.5431 71.5054 33.2302V30.9939C71.5054 30.0363 70.7366 29.2594 69.787 29.2594C68.8483 29.2594 68.0849 30.0201 68.0714 30.967V33.2167C68.0714 33.5378 67.8151 33.7967 67.4995 33.7967C67.1893 33.7967 66.9357 33.5458 66.9276 33.2329V30.9049C66.9276 30.8833 66.9303 30.8591 66.9303 30.8348C67.0112 29.3079 68.2602 28.0994 69.787 28.0994ZM62.5467 29.3511C61.5999 29.3511 60.8311 30.128 60.8311 31.0856C60.8311 32.0433 61.5999 32.8229 62.5467 32.8229C63.4963 32.8229 64.2651 32.046 64.2651 31.0856C64.2651 30.128 63.4963 29.3511 62.5467 29.3511ZM48.7486 28.1507C48.7863 28.1507 48.8241 28.1507 48.8619 28.1534C48.8996 28.1561 48.9401 28.1561 48.9779 28.1615C49.0156 28.1642 49.0561 28.1696 49.0939 28.1723C50.1594 28.2963 51.0658 29.0004 51.4462 29.9823C51.4624 30.0201 51.4758 30.0579 51.4893 30.0983C51.5918 30.3978 51.4273 30.7215 51.1252 30.824C50.8284 30.9238 50.5047 30.7673 50.3968 30.4787L50.3914 30.4652C50.3833 30.4436 50.3752 30.4193 50.3671 30.3978C50.1378 29.8097 49.5929 29.3862 48.9563 29.3106C48.932 29.3079 48.9104 29.3052 48.8862 29.3025C48.8619 29.2998 48.8403 29.2998 48.816 29.2998C48.7944 29.2972 48.7702 29.2971 48.7459 29.2971C48.7216 29.2971 48.6973 29.2972 48.6757 29.2998C48.6515 29.3025 48.6299 29.3025 48.6056 29.3052C48.5813 29.3079 48.5598 29.3079 48.5355 29.3133C47.8773 29.3916 47.3243 29.8367 47.1058 30.449L47.0977 30.4706C46.9952 30.77 46.6687 30.9319 46.3639 30.8294C46.0618 30.7296 45.8972 30.4032 45.9997 30.1037C46.3531 29.0652 47.2838 28.3071 48.3952 28.1777C48.433 28.1723 48.4734 28.1696 48.5112 28.1669C48.549 28.1642 48.5867 28.1615 48.6245 28.1588C48.673 28.1507 48.7108 28.1507 48.7486 28.1507Z" fill="#ED6825"/>
<path d="M74.6025 31.4957C74.5162 31.4957 74.4406 31.4633 74.3786 31.4012C74.3166 31.3392 74.2842 31.2637 74.2842 31.1773C74.2842 31.091 74.3166 31.0155 74.3786 30.9508C74.4406 30.886 74.5162 30.8536 74.6025 30.8536C74.6915 30.8536 74.7671 30.886 74.8291 30.9508C74.8911 31.0155 74.9235 31.091 74.9235 31.1773C74.9235 31.2637 74.8911 31.3392 74.8291 31.4012C74.7671 31.466 74.6915 31.4957 74.6025 31.4957ZM74.8669 33.7535H74.3462V31.7384H74.8669V33.7535Z" fill="#221F20"/>
<path d="M76.8258 33.1653C76.8258 33.3298 76.7745 33.4647 76.6747 33.5726C76.5749 33.6805 76.4373 33.7507 76.2647 33.7857V33.9395C76.3483 33.9584 76.4157 33.9934 76.4697 34.0474C76.5209 34.1013 76.5479 34.1688 76.5479 34.2524C76.5479 34.5357 76.2512 34.6571 75.6604 34.6247V34.2578C75.9517 34.2767 76.0974 34.2497 76.0974 34.1769C76.0974 34.1202 76.0138 34.0879 75.8438 34.0771V33.7992C75.5201 33.7588 75.2962 33.6023 75.1694 33.3325L75.6199 33.079C75.682 33.2543 75.8142 33.3406 76.0138 33.3406C76.1999 33.3406 76.2916 33.284 76.2916 33.168C76.2916 33.0817 76.1702 33.0088 75.9248 32.9468C75.833 32.9225 75.7548 32.8982 75.6901 32.8739C75.6253 32.8497 75.5552 32.8146 75.4797 32.766C75.4041 32.7202 75.3475 32.6581 75.307 32.5853C75.2692 32.5125 75.2477 32.4235 75.2477 32.3263C75.2477 32.1267 75.3205 31.9703 75.4662 31.8597C75.6145 31.7437 75.798 31.687 76.0138 31.687C76.1783 31.687 76.3267 31.7248 76.4616 31.7976C76.5965 31.8704 76.7017 31.9784 76.7799 32.1132L76.3375 32.356C76.2728 32.2184 76.1648 32.151 76.0138 32.151C75.9463 32.151 75.8897 32.1672 75.8465 32.1969C75.8034 32.2265 75.7791 32.267 75.7791 32.3155C75.7791 32.4019 75.9005 32.4747 76.146 32.5367C76.2323 32.5556 76.3105 32.5772 76.3807 32.6042C76.4508 32.6312 76.5209 32.6662 76.5911 32.7121C76.6612 32.7579 76.7179 32.8227 76.7583 32.9009C76.7988 32.9792 76.8258 33.0628 76.8258 33.1653Z" fill="#221F20"/>
<path d="M79.2882 31.6817C79.5607 31.6817 79.7899 31.7842 79.9815 31.9919C80.1757 32.1996 80.2728 32.4505 80.2728 32.7472C80.2728 33.0494 80.1757 33.3002 79.9815 33.5052C79.7926 33.7103 79.5634 33.8128 79.2882 33.8128C79.005 33.8128 78.7891 33.7157 78.6354 33.5187V33.7561H78.1147V30.9344H78.6354V31.9784C78.7891 31.7788 79.0076 31.6817 79.2882 31.6817ZM78.7945 33.1573C78.8997 33.2625 79.0319 33.3137 79.1938 33.3137C79.3556 33.3137 79.4878 33.2625 79.593 33.1573C79.7009 33.0494 79.7549 32.9118 79.7549 32.7472C79.7549 32.58 79.7009 32.4451 79.593 32.3399C79.4878 32.232 79.3556 32.178 79.1938 32.178C79.0319 32.178 78.8997 32.232 78.7945 32.3399C78.6893 32.4451 78.6381 32.58 78.6381 32.7472C78.6354 32.9145 78.6893 33.0494 78.7945 33.1573Z" fill="#221F20"/>
<path d="M80.8613 31.4957C80.775 31.4957 80.6994 31.4633 80.6374 31.4012C80.5753 31.3392 80.543 31.2637 80.543 31.1773C80.543 31.091 80.5753 31.0155 80.6374 30.9508C80.6994 30.886 80.775 30.8536 80.8613 30.8536C80.9503 30.8536 81.0258 30.886 81.0879 30.9508C81.1499 31.0155 81.1823 31.091 81.1823 31.1773C81.1823 31.2637 81.1499 31.3392 81.0879 31.4012C81.0258 31.466 80.9503 31.4957 80.8613 31.4957ZM81.1256 33.7535H80.605V31.7384H81.1256V33.7535Z" fill="#221F20"/>
<path d="M82.0829 31.7383V32.0863C82.1287 31.9595 82.207 31.8651 82.3176 31.7977C82.4282 31.7329 82.5549 31.6979 82.6979 31.6979V32.2779C82.5388 32.2563 82.3958 32.2886 82.2717 32.375C82.1476 32.4586 82.0856 32.5962 82.0856 32.7904V33.7534H81.5649V31.7383H82.0829Z" fill="#221F20"/>
<path d="M83.4821 33.7535H82.9614V30.8104H83.4821V33.7535Z" fill="#221F20"/>
<path d="M84.1816 31.4957C84.0953 31.4957 84.0197 31.4633 83.9577 31.4012C83.8957 31.3392 83.8633 31.2637 83.8633 31.1773C83.8633 31.091 83.8957 31.0155 83.9577 30.9508C84.0197 30.886 84.0953 30.8536 84.1816 30.8536C84.2706 30.8536 84.3461 30.886 84.4082 30.9508C84.4702 31.0155 84.5026 31.091 84.5026 31.1773C84.5026 31.2637 84.4702 31.3392 84.4082 31.4012C84.3461 31.466 84.2706 31.4957 84.1816 31.4957ZM84.4433 33.7535H83.9226V31.7384H84.4433V33.7535Z" fill="#221F20"/>
<path d="M86.4248 31.9892V31.7383H86.932V33.659C86.932 33.9692 86.8295 34.2066 86.6218 34.3739C86.4168 34.5384 86.1713 34.6194 85.8799 34.6194C85.4213 34.6194 85.103 34.4548 84.925 34.1284L85.3674 33.8748C85.4672 34.0637 85.6425 34.1581 85.8961 34.1581C86.0607 34.1581 86.1902 34.1149 86.2819 34.0286C86.3736 33.9423 86.4221 33.8209 86.4221 33.6617V33.4432C86.2684 33.6482 86.0526 33.7507 85.7774 33.7507C85.4915 33.7507 85.2541 33.6509 85.0599 33.4513C84.8683 33.2463 84.7739 33.0035 84.7739 32.7176C84.7739 32.4316 84.871 32.1888 85.0653 31.9865C85.2595 31.7842 85.4969 31.6844 85.7801 31.6844C86.058 31.6817 86.2738 31.7842 86.4248 31.9892ZM85.8422 31.5171C85.6291 31.5171 85.4645 31.4659 85.3485 31.3634C85.2325 31.2609 85.1732 31.1179 85.1732 30.9318H85.6372C85.6372 31.072 85.7046 31.1422 85.8422 31.1422C85.9824 31.1422 86.0526 31.072 86.0526 30.9318H86.5166C86.5166 31.1179 86.4572 31.2609 86.3412 31.3634C86.2252 31.4659 86.0553 31.5171 85.8422 31.5171ZM86.2657 33.1114C86.3709 33.0089 86.4248 32.8767 86.4248 32.7149C86.4248 32.553 86.3709 32.4235 86.263 32.3237C86.1578 32.2185 86.0229 32.1673 85.8584 32.1673C85.6965 32.1673 85.5616 32.2185 85.451 32.3237C85.3458 32.4235 85.2946 32.553 85.2946 32.7149C85.2946 32.8767 85.3485 33.0089 85.4537 33.1114C85.5589 33.2139 85.6938 33.2679 85.8584 33.2679C86.0256 33.2679 86.1605 33.2139 86.2657 33.1114Z" fill="#221F20"/>
<path d="M87.6293 31.4957C87.543 31.4957 87.4675 31.4633 87.4055 31.4012C87.3434 31.3392 87.311 31.2637 87.311 31.1773C87.311 31.091 87.3434 31.0155 87.4055 30.9508C87.4675 30.886 87.543 30.8536 87.6293 30.8536C87.7184 30.8536 87.7939 30.886 87.8559 30.9508C87.918 31.0155 87.9504 31.091 87.9504 31.1773C87.9504 31.2637 87.918 31.3392 87.8559 31.4012C87.7939 31.466 87.7184 31.4957 87.6293 31.4957ZM87.891 33.7535H87.3704V31.7384H87.891V33.7535Z" fill="#221F20"/>
<path d="M89.5605 31.4957C89.4742 31.4957 89.3986 31.4633 89.3366 31.4012C89.2746 31.3392 89.2422 31.2637 89.2422 31.1773C89.2422 31.091 89.2746 31.0155 89.3366 30.9508C89.3986 30.886 89.4742 30.8536 89.5605 30.8536C89.6495 30.8536 89.7251 30.886 89.7871 30.9508C89.8491 31.0155 89.8815 31.091 89.8815 31.1773C89.8815 31.2637 89.8491 31.3392 89.7871 31.4012C89.7251 31.466 89.6495 31.4957 89.5605 31.4957ZM89.8222 33.7535H89.3015V31.7384H89.8222V33.7535Z" fill="#221F20"/>
<path d="M90.7824 33.7535H90.2617V30.8104H90.7824V33.7535Z" fill="#221F20"/>
<path d="M93.1804 32.9604H91.6589C91.7264 33.214 91.9152 33.3408 92.2281 33.3408C92.4278 33.3408 92.5788 33.2733 92.6786 33.1385L93.0968 33.3812C92.8971 33.6699 92.6058 33.8129 92.2173 33.8129C91.8828 33.8129 91.6158 33.713 91.4135 33.5107C91.2111 33.3084 91.1113 33.0548 91.1113 32.7473C91.1113 32.4452 91.2111 32.1943 91.4108 31.9893C91.6077 31.7843 91.8613 31.6818 92.1769 31.6818C92.4763 31.6818 92.7191 31.7843 92.9079 31.9893C93.1021 32.1943 93.1993 32.4452 93.1993 32.7473C93.202 32.804 93.1939 32.8741 93.1804 32.9604ZM91.6535 32.5558H92.6813C92.6517 32.4236 92.5923 32.3238 92.5006 32.2536C92.4089 32.1835 92.3037 32.1484 92.1796 32.1484C92.0393 32.1484 91.9233 32.1835 91.8316 32.2563C91.7426 32.3265 91.6832 32.429 91.6535 32.5558Z" fill="#221F20"/>
<path d="M15.026 21.8517C14.624 21.3283 14.7158 20.805 15.2418 20.2817L16.5609 18.9841C17.1786 18.3934 17.5644 18.4392 18.0149 18.9167C18.2927 19.2134 18.6434 19.44 19.1991 19.44C20.3321 19.44 21.0092 18.7575 21.2412 17.4384L22.6251 9.58574C22.7573 8.83581 23.1997 8.42578 23.901 8.42578H25.8972C26.577 8.42578 26.8765 8.83581 26.7416 9.58574L25.3658 17.3926C24.659 21.3985 22.4174 23.4918 18.7918 23.4918C17.5185 23.4891 15.9297 23.0332 15.026 21.8517Z" fill="#221F20"/>
<path d="M25.1635 22.0568L27.3621 9.58318C27.4942 8.83325 27.9367 8.42322 28.6164 8.42322H36.7092C37.389 8.42322 37.6884 8.83325 37.5535 9.58318L37.3162 10.9266C37.184 11.6765 36.7416 12.0865 36.0618 12.0865H31.0173L30.6639 14.0881H34.2463C34.9261 14.0881 35.2417 14.5198 35.1095 15.2724L34.918 16.3649C34.7804 17.1391 34.3191 17.5491 33.6393 17.5491H30.057L29.7036 19.5508H34.8101C35.4899 19.5508 35.8082 19.9608 35.676 20.7107L35.4386 22.0541C35.3065 22.804 34.8425 23.2141 34.1627 23.2141H26.0079C25.3281 23.2168 25.0314 22.8067 25.1635 22.0568Z" fill="#221F20"/>
<path d="M37.5403 22.0567L39.2991 12.0891H36.2725C35.5927 12.0891 35.2932 11.6791 35.4281 10.9291L35.6655 9.58574C35.7977 8.83581 36.2401 8.42578 36.9199 8.42578H47.0709C47.7507 8.42578 48.0501 8.83581 47.9152 9.58574L47.6778 10.9291C47.5457 11.6791 47.1033 12.0891 46.4235 12.0891H43.3968L41.6379 22.0567C41.5058 22.8066 41.0634 23.2166 40.3836 23.2166H38.3874C37.7049 23.2166 37.4081 22.8066 37.5403 22.0567Z" fill="#221F20"/>
<path d="M50.5017 22.0567L52.2606 12.0891H49.2339C48.5541 12.0891 48.2547 11.6791 48.3895 10.9291L48.6269 9.58574C48.7591 8.83581 49.2015 8.42578 49.8813 8.42578H60.0323C60.7121 8.42578 61.0115 8.83581 60.8767 9.58574L60.6393 10.9291C60.5071 11.6791 60.0647 12.0891 59.3849 12.0891H56.3582L54.5994 22.0567C54.4672 22.8066 54.0248 23.2166 53.345 23.2166H51.3488C50.6663 23.2166 50.3696 22.8066 50.5017 22.0567Z" fill="#00E600"/>
<path d="M14.4577 13.3652C14.3309 13.3922 14.1906 13.2951 14.1151 13.1764C13.7455 12.5856 13.3651 12.0164 13.0225 11.5012C12.4534 10.646 12.0002 9.97165 11.8005 9.51036C11.5578 9.09224 11.4175 8.5689 11.4175 8.04018C11.4175 6.36228 12.7825 5 14.4577 5C16.1329 5 17.4978 6.36498 17.4978 8.04018C17.4978 8.56351 17.3603 9.08414 17.0986 9.54003C16.9152 9.96625 16.462 10.6487 15.8847 11.512C15.5475 12.0164 15.1725 12.5775 14.7976 13.1764C14.7247 13.2951 14.5952 13.3652 14.4577 13.3652ZM14.4577 5.80388C13.2249 5.80388 12.2214 6.80738 12.2214 8.04018C12.2214 8.42863 12.3239 8.81169 12.5181 9.14619C12.7123 9.5832 13.1655 10.2657 13.6915 11.0534C13.9343 11.4176 14.196 11.806 14.4577 12.2133C14.722 11.806 14.9783 11.4229 15.2157 11.0669C15.7471 10.2684 16.2084 9.5805 16.3783 9.18126C16.5887 8.80629 16.6913 8.42593 16.6913 8.04018C16.6913 6.80738 15.6905 5.80388 14.4577 5.80388Z" fill="#00E600"/>
<path d="M14.457 9.22157C13.7017 9.22157 13.0894 8.60652 13.0894 7.8512C13.0894 7.09587 13.7044 6.48352 14.457 6.48352C15.2124 6.48352 15.8247 7.09587 15.8247 7.8512C15.8247 8.60652 15.2097 9.22157 14.457 9.22157ZM14.457 7.2901C14.1468 7.2901 13.8932 7.54367 13.8932 7.8512C13.8932 8.16142 14.1468 8.41499 14.457 8.41499C14.7673 8.41499 15.0181 8.16142 15.0181 7.8512C15.0181 7.54097 14.7673 7.2901 14.457 7.2901Z" fill="#00E600"/>
<path d="M75.9645 26.2136H15.6277C13.7447 26.2136 12.3096 24.5303 12.6064 22.6717L13.8661 14.8055" stroke="#38D430" stroke-width="1.07903" stroke-miterlimit="10" stroke-linecap="round" stroke-linejoin="round"/>
<path d="M110.586 14.8055L109.175 23.6374C108.937 25.1211 107.659 26.2136 106.153 26.2136H82.8193" stroke="#231F20" stroke-width="1.07903" stroke-miterlimit="10" stroke-linecap="round" stroke-linejoin="round"/>
<path d="M60.0626 23.2545C59.7362 23.2545 59.5016 23.1358 59.3424 22.8849C59.194 22.6367 59.1886 22.3643 59.3343 22.0702L65.7411 8.68212C65.8652 8.43394 66.0513 8.30176 66.3237 8.30176H70.3054C70.6642 8.30176 70.9312 8.53915 70.9798 8.87634L72.7305 22.4047C72.7764 22.8822 72.4661 23.2518 71.9563 23.2518H69.4718C69.0159 23.2518 68.7705 23.0252 68.7246 22.5693L68.6005 21.0074C68.5708 20.8671 68.4845 20.7916 68.3334 20.7916H64.1549C64.0578 20.7916 63.9795 20.8347 63.9364 20.9211L63.1217 22.7878C62.976 23.1034 62.7225 23.2545 62.3772 23.2545H60.0626ZM68.0286 17.5922C68.1689 17.5922 68.3361 17.4412 68.3038 17.2982L67.8964 13.8372C67.8209 13.1331 67.74 12.7851 67.6537 12.7959C67.5565 12.8175 67.3866 13.1223 67.1384 13.7185L65.5495 17.1687C65.4254 17.3737 65.5846 17.5922 65.8139 17.5922H68.0286Z" fill="#00E600"/>
<path d="M87.1706 11.1692L85.3632 12.7418C85.0314 13.0251 84.6969 12.99 84.3678 12.6555C83.5693 11.8193 82.4902 11.4092 81.1442 11.4092C79.941 11.4092 79.3368 11.768 79.3233 12.4829C79.3125 13.0467 79.7954 13.4594 80.7665 13.7184L82.7519 14.2822C85.2121 15.0078 86.426 16.4079 86.3883 18.4796C86.3586 20.1602 85.784 21.4308 84.651 22.2886C83.518 23.1464 81.9372 23.5915 79.9302 23.6347L79.8817 23.8721C79.8358 24.0987 79.9302 24.2201 80.1784 24.2309C81.3384 24.3496 81.8671 25.0671 81.7079 26.0544C81.6081 26.7909 81.1873 27.325 80.5858 27.6055C79.9842 27.8888 79.4069 27.9859 78.7568 27.9859C78.2362 27.9859 77.7587 27.9427 77.3163 27.8564C76.9602 27.7701 76.7822 27.4113 76.8415 27.0525L76.9332 26.6938C77.0276 26.281 77.2596 26.0976 77.6157 26.1408C77.8099 26.1839 78.0473 26.2055 78.3414 26.2055C79.0023 26.2055 79.3422 26.076 79.3476 25.8143C79.3826 25.5877 79.1587 25.4448 78.4547 25.3153C77.9772 25.2721 77.8099 24.9781 77.9502 24.4359L78.2173 23.5241C76.1509 23.2301 74.5189 22.2212 73.7717 20.8346C73.6368 20.5514 73.6934 20.2816 73.9713 20.0307L75.7436 18.5444C76.1186 18.2179 76.4854 18.2611 76.8361 18.6738C77.524 19.618 78.6003 20.0955 80.0543 20.0955C81.5407 20.0955 82.2852 19.7259 82.2987 18.9895C82.3095 18.3933 81.8374 18.0021 80.6289 17.6542L78.8809 17.1443C76.4638 16.4187 75.2715 14.997 75.3093 12.8578C75.3659 9.56949 77.6966 7.92126 81.7322 7.92126C84.1951 7.92126 86.0376 8.69277 87.2677 10.2331C87.5374 10.573 87.4997 10.8886 87.1706 11.1692Z" fill="#00E600"/>
<path d="M88.4794 23.2545C87.9696 23.2545 87.6836 22.8741 87.7457 22.3643L90.1061 8.90061C90.1897 8.49867 90.4217 8.30444 90.8101 8.30444H93.2083C93.7181 8.30444 94.0257 8.6848 93.9205 9.19465L91.5601 22.6583C91.5088 23.0602 91.2795 23.2545 90.856 23.2545H88.4794Z" fill="#00E600"/>
<path d="M108.466 8.30444C108.975 8.30444 109.283 8.69559 109.188 9.17306L106.86 22.6367C106.777 23.0494 106.534 23.2545 106.121 23.2545H103.518C103.203 23.2545 102.989 23.1034 102.865 22.8094L99.9303 16.3217C99.5338 15.3559 99.264 15.3991 99.1049 16.4296L98.0366 22.6799C97.9989 23.0386 97.7129 23.2545 97.3649 23.2545H95.2285C94.7186 23.2545 94.4327 22.8741 94.4947 22.3643L96.8551 8.90061C96.9387 8.49867 97.1707 8.30444 97.5592 8.30444H100.273C100.556 8.30444 100.748 8.43393 100.842 8.70638L103.788 15.1725C104.214 16.1814 104.454 16.149 104.613 15.0538L105.655 8.90331C105.706 8.50137 105.935 8.30714 106.359 8.30714H108.466V8.30444Z" fill="#00E600"/>
</g>
<defs>
<clipPath id="clip0_5_3392">
<rect width="120" height="40" fill="white"/>
</clipPath>
</defs>
</svg>
