<svg width="70" height="41" viewBox="0 0 70 41" fill="none" xmlns="http://www.w3.org/2000/svg">
<g clip-path="url(#clip0_55_2763)">
<path d="M38.5298 16.9784C38.5805 16.9768 38.6309 16.9868 38.6771 17.0076C38.7233 17.0285 38.7642 17.0596 38.7965 17.0987C38.8289 17.1378 38.8519 17.1837 38.8637 17.233C38.8756 17.2824 38.876 17.3338 38.8649 17.3833L38.7121 18.3431C38.7033 18.4173 38.6659 18.4852 38.6078 18.5323C38.5497 18.5794 38.4755 18.6019 38.4011 18.5951H35.5538C35.4787 18.5951 35.4412 18.6299 35.4412 18.6996L35.3125 19.5495C35.2964 19.6434 35.3366 19.6916 35.4305 19.6916H37.3876C37.4376 19.6876 37.4879 19.6955 37.5342 19.7148C37.5806 19.734 37.6217 19.7639 37.6541 19.8022C37.6866 19.8404 37.7095 19.8858 37.721 19.9347C37.7325 19.9835 37.7321 20.0344 37.7201 20.0831L37.6102 20.8257C37.6078 20.8634 37.598 20.9003 37.5813 20.9342C37.5646 20.9681 37.5414 20.9983 37.513 21.0233C37.4846 21.0482 37.4516 21.0672 37.4158 21.0793C37.38 21.0914 37.3422 21.0964 37.3045 21.0938H35.1758C35.1477 21.0908 35.1196 21.0989 35.0975 21.1165C35.0754 21.1341 35.0612 21.1596 35.0578 21.1877L34.9238 22.0375C34.9205 22.0552 34.9212 22.0733 34.926 22.0906C34.9308 22.108 34.9395 22.1239 34.9514 22.1374C34.9633 22.1508 34.9781 22.1614 34.9946 22.1682C35.0112 22.1751 35.0292 22.1781 35.0471 22.177H37.7281C37.7794 22.1747 37.8305 22.1842 37.8776 22.2046C37.9247 22.2251 37.9665 22.256 37.9998 22.295C38.0331 22.334 38.0571 22.3801 38.07 22.4298C38.0829 22.4795 38.0842 22.5315 38.074 22.5818L37.9212 23.5362C37.9191 23.5736 37.9097 23.6102 37.8935 23.6438C37.8773 23.6775 37.8546 23.7077 37.8267 23.7326C37.7988 23.7575 37.7662 23.7767 37.7309 23.789C37.6956 23.8013 37.6582 23.8065 37.6209 23.8043H33.299C33.2481 23.8063 33.1973 23.7966 33.1506 23.7759C33.104 23.7553 33.0627 23.7242 33.0298 23.6852C32.997 23.6461 32.9735 23.6001 32.9611 23.5506C32.9488 23.5011 32.9479 23.4494 32.9586 23.3995L33.9264 17.2572C33.9294 17.2188 33.9401 17.1814 33.9576 17.1471C33.9752 17.1128 33.9994 17.0823 34.0288 17.0574C34.0582 17.0324 34.0922 17.0136 34.129 17.0019C34.1657 16.9902 34.2044 16.9858 34.2428 16.9891H38.5324L38.5298 16.9784Z" fill="#221F20"/>
<path d="M46.554 16.9785C46.6049 16.9756 46.6559 16.9848 46.7026 17.0053C46.7493 17.0258 46.7906 17.0571 46.823 17.0965C46.8554 17.136 46.878 17.1825 46.889 17.2323C46.9 17.2822 46.8992 17.3339 46.8864 17.3834L45.9266 23.5176C45.9236 23.556 45.913 23.5934 45.8954 23.6277C45.8778 23.6621 45.8536 23.6925 45.8242 23.7175C45.7948 23.7424 45.7608 23.7612 45.724 23.7729C45.6873 23.7847 45.6486 23.789 45.6102 23.7857H44.6424C44.5908 23.789 44.5392 23.7803 44.4915 23.7602C44.4439 23.7401 44.4017 23.7092 44.3681 23.6699C44.3345 23.6306 44.3106 23.584 44.2981 23.5338C44.2857 23.4836 44.2852 23.4313 44.2965 23.3808L44.6424 21.236C44.7604 20.5631 44.5485 20.5443 44.2268 21.0725L43.0123 22.9063C42.9899 22.9473 42.9557 22.9805 42.914 23.0015C42.8724 23.0226 42.8253 23.0305 42.7791 23.0243H41.8782C41.8191 23.027 41.7607 23.01 41.7122 22.9761C41.6637 22.9421 41.6278 22.8931 41.6101 22.8366L40.9533 20.9438C40.771 20.4076 40.6181 20.4076 40.5377 20.984L40.1516 23.5042C40.1519 23.5423 40.1441 23.58 40.1286 23.6148C40.1132 23.6496 40.0905 23.6807 40.0621 23.7061C40.0337 23.7315 40.0002 23.7505 39.9639 23.7619C39.9275 23.7733 39.8892 23.7768 39.8514 23.7723H38.8781C38.8272 23.7742 38.7764 23.7645 38.7297 23.7438C38.6831 23.7232 38.6418 23.6921 38.6089 23.6531C38.5761 23.614 38.5526 23.568 38.5402 23.5185C38.5279 23.469 38.527 23.4173 38.5377 23.3674L39.5055 17.2252C39.5086 17.1867 39.5192 17.1493 39.5367 17.115C39.5543 17.0807 39.5785 17.0502 39.6079 17.0253C39.6373 17.0004 39.6713 16.9815 39.7081 16.9698C39.7448 16.9581 39.7835 16.9538 39.8219 16.9571H41.1624C41.2261 16.9539 41.2891 16.9722 41.3412 17.0092C41.3932 17.0462 41.4313 17.0996 41.4493 17.1608L42.5217 20.3191C42.6155 20.5872 42.645 20.6167 42.8032 20.3486L44.948 17.0858C44.973 17.0446 45.0086 17.011 45.051 16.9883C45.0935 16.9657 45.1413 16.9549 45.1893 16.9571L46.554 16.9785Z" fill="#221F20"/>
<path d="M51.2306 22.1395C51.2809 22.1364 51.3313 22.1449 51.3778 22.1644C51.4243 22.184 51.4656 22.214 51.4986 22.2522C51.5315 22.2903 51.5552 22.3356 51.5678 22.3844C51.5804 22.4332 51.5815 22.4843 51.5711 22.5337L51.4129 23.5283C51.4133 23.5669 51.4053 23.6052 51.3896 23.6404C51.3738 23.6756 51.3506 23.7071 51.3216 23.7325C51.2926 23.758 51.2584 23.7769 51.2214 23.7879C51.1844 23.7989 51.1455 23.8018 51.1073 23.7964H47.1098C47.0584 23.8001 47.0068 23.7915 46.9593 23.7713C46.9118 23.7512 46.8697 23.7202 46.8365 23.6807C46.8033 23.6412 46.7799 23.5944 46.7683 23.5442C46.7566 23.494 46.757 23.4417 46.7693 23.3916L47.7292 17.2574C47.7322 17.2189 47.7428 17.1815 47.7604 17.1472C47.7779 17.1129 47.8021 17.0824 47.8315 17.0575C47.8609 17.0326 47.895 17.0137 47.9317 17.002C47.9684 16.9903 48.0071 16.986 48.0455 16.9893H49.1367C49.1878 16.9858 49.239 16.9946 49.2861 17.0149C49.3331 17.0352 49.3747 17.0665 49.4072 17.1061C49.4397 17.1457 49.4623 17.1925 49.4731 17.2426C49.4838 17.2927 49.4825 17.3446 49.4691 17.3941L48.7533 22.0109C48.7372 22.1047 48.7828 22.1529 48.8766 22.1503H51.2306V22.1395Z" fill="#221F20"/>
<path d="M51.7155 23.7884C51.6508 23.7923 51.5861 23.7788 51.5283 23.7494C51.4705 23.72 51.4216 23.6756 51.3866 23.621C51.3516 23.5663 51.3319 23.5034 51.3294 23.4385C51.3269 23.3737 51.3417 23.3094 51.3723 23.2522L54.1848 17.1394C54.2048 17.0854 54.2417 17.0393 54.29 17.0079C54.3383 16.9766 54.3954 16.9616 54.4529 16.9652H56.2652C56.3411 16.9633 56.415 16.9896 56.4725 17.0392C56.53 17.0888 56.567 17.1579 56.5763 17.2333L57.4798 23.3997C57.4884 23.4488 57.4857 23.4993 57.472 23.5473C57.4583 23.5952 57.4339 23.6395 57.4006 23.6767C57.3673 23.7138 57.326 23.743 57.2798 23.7619C57.2336 23.7807 57.1837 23.7889 57.1339 23.7857H56.0025C55.9589 23.7902 55.9149 23.7855 55.8732 23.772C55.8315 23.7584 55.7932 23.7362 55.7606 23.7069C55.728 23.6776 55.7019 23.6418 55.684 23.6018C55.6661 23.5618 55.6568 23.5185 55.6567 23.4747L55.5869 22.7642C55.5829 22.7351 55.5679 22.7086 55.545 22.6901C55.5221 22.6717 55.493 22.6627 55.4636 22.665H53.5601C53.5396 22.6641 53.5192 22.6691 53.5016 22.6796C53.484 22.6901 53.4698 22.7055 53.4609 22.724L53.0989 23.5739C53.0722 23.6398 53.0255 23.6956 52.9654 23.7336C52.9053 23.7716 52.8348 23.7898 52.7638 23.7857L51.7155 23.7884ZM55.2974 21.2092C55.3617 21.2092 55.4368 21.1395 55.4207 21.0752L55.2089 19.4987C55.1687 19.177 55.1312 19.0188 55.091 19.0242C55.0507 19.0296 54.973 19.1717 54.8631 19.4451L54.166 21.0162C54.154 21.0367 54.148 21.06 54.1484 21.0837C54.1489 21.1074 54.1559 21.1305 54.1687 21.1504C54.1814 21.1704 54.1994 21.1864 54.2207 21.1968C54.242 21.2072 54.2657 21.2115 54.2893 21.2092H55.2974Z" fill="#221F20"/>
<path d="M63.7323 16.9891C63.8246 16.981 63.9171 17.0027 63.9962 17.0509C64.0753 17.0991 64.1369 17.1714 64.172 17.2572C64.209 17.3397 64.2174 17.4321 64.1961 17.52C64.1747 17.6078 64.1248 17.6861 64.0541 17.7424L62.2953 19.5655C62.2427 19.6215 62.2062 19.6907 62.1897 19.7658C62.1732 19.8408 62.1772 19.9189 62.2015 19.9918L63.3677 23.3056C63.3884 23.3607 63.3952 23.42 63.3875 23.4784C63.3799 23.5367 63.358 23.5923 63.3239 23.6402C63.2897 23.6882 63.2443 23.727 63.1917 23.7532C63.139 23.7795 63.0807 23.7924 63.0219 23.7909H61.7189C61.6558 23.792 61.5943 23.7709 61.5453 23.7311C61.4962 23.6914 61.4628 23.6357 61.4508 23.5737L60.7832 21.4986C60.7792 21.4716 60.7672 21.4465 60.7487 21.4264C60.7303 21.4063 60.7063 21.3922 60.6798 21.3858C60.6533 21.3795 60.6255 21.3812 60.5999 21.3908C60.5744 21.4004 60.5523 21.4174 60.5365 21.4396L59.9226 22.0482C59.8359 22.1484 59.7768 22.2694 59.751 22.3994L59.5687 23.5362C59.5693 23.5758 59.5612 23.6151 59.5448 23.6513C59.5284 23.6874 59.5042 23.7194 59.4739 23.7451C59.4437 23.7707 59.4081 23.7893 59.3698 23.7996C59.3315 23.8098 59.2913 23.8114 59.2523 23.8043H58.1799C58.1289 23.8062 58.0782 23.7965 58.0315 23.7758C57.9849 23.7552 57.9435 23.7241 57.9107 23.6851C57.8778 23.646 57.8543 23.6 57.842 23.5505C57.8296 23.501 57.8288 23.4493 57.8394 23.3994L58.8073 17.2652C58.8103 17.2268 58.8209 17.1893 58.8385 17.155C58.8561 17.1207 58.8803 17.0902 58.9097 17.0653C58.9391 17.0404 58.9731 17.0215 59.0098 17.0098C59.0466 16.9981 59.0852 16.9938 59.1236 16.9971H60.2148C60.2655 16.9953 60.3158 17.0053 60.362 17.0262C60.4082 17.047 60.4489 17.0782 60.4811 17.1174C60.5132 17.1565 60.5359 17.2026 60.5474 17.2519C60.5589 17.3013 60.5588 17.3526 60.5473 17.4019L60.2952 19.0106C60.2309 19.461 60.3489 19.5468 60.6599 19.1741L62.3596 17.2974C62.5527 17.0641 62.6465 17.0159 62.8798 17.0159H63.7484L63.7323 16.9891Z" fill="#221F20"/>
<path d="M39.1573 25.1823C39.2351 25.1768 39.3129 25.1945 39.3806 25.2331C39.4484 25.2718 39.5032 25.3297 39.538 25.3995C39.5719 25.4698 39.5856 25.5482 39.5776 25.6258C39.5695 25.7035 39.5401 25.7773 39.4924 25.8392L37.0017 29.4023C36.9053 29.5454 36.8396 29.707 36.8087 29.8768L36.5165 31.7241C36.5141 31.7618 36.5043 31.7986 36.4876 31.8325C36.4709 31.8664 36.4478 31.8967 36.4194 31.9216C36.391 31.9465 36.3579 31.9656 36.3221 31.9777C36.2863 31.9898 36.2485 31.9947 36.2108 31.9922H35.1197C35.0691 31.9968 35.0183 31.9892 34.9713 31.97C34.9244 31.9509 34.8827 31.9207 34.8498 31.8821C34.817 31.8434 34.7939 31.7975 34.7825 31.748C34.7712 31.6986 34.7718 31.6472 34.7845 31.5981L35.0526 29.9278C35.0892 29.7424 35.0706 29.5504 34.999 29.3755L33.5861 25.6998C33.5607 25.6436 33.55 25.5819 33.5549 25.5205C33.5598 25.459 33.5802 25.3998 33.6142 25.3484C33.6482 25.297 33.6947 25.255 33.7493 25.2264C33.804 25.1979 33.865 25.1836 33.9266 25.185H35.0178C35.0826 25.1823 35.1464 25.2018 35.1986 25.2403C35.2507 25.2789 35.2882 25.3341 35.3046 25.3968L36.109 27.7132C36.1149 27.7459 36.1313 27.7757 36.1556 27.7982C36.18 27.8207 36.211 27.8347 36.244 27.838C36.277 27.8413 36.3101 27.8338 36.3385 27.8166C36.3669 27.7995 36.3889 27.7735 36.4012 27.7427L37.9482 25.3298C37.9717 25.2867 38.0067 25.2509 38.0493 25.2263C38.0918 25.2017 38.1403 25.1893 38.1894 25.1904L39.1573 25.1823Z" fill="#00E600"/>
<path d="M38.2243 31.9949C38.1595 31.9987 38.0949 31.9853 38.0371 31.9558C37.9793 31.9264 37.9304 31.8821 37.8954 31.8274C37.8604 31.7728 37.8407 31.7098 37.8382 31.645C37.8357 31.5801 37.8505 31.5158 37.8811 31.4586L40.6935 25.3593C40.7136 25.3053 40.7505 25.2592 40.7988 25.2278C40.8471 25.1964 40.9042 25.1814 40.9617 25.185H42.774C42.8499 25.1831 42.9238 25.2095 42.9813 25.2591C43.0387 25.3086 43.0757 25.3778 43.085 25.4531L43.9885 31.6195C43.9972 31.6687 43.9945 31.7191 43.9808 31.7671C43.9671 31.8151 43.9427 31.8593 43.9094 31.8965C43.8761 31.9337 43.8348 31.9628 43.7886 31.9817C43.7424 32.0006 43.6925 32.0088 43.6427 32.0056H42.5113C42.4677 32.0101 42.4237 32.0054 42.382 31.9918C42.3403 31.9782 42.302 31.9561 42.2694 31.9268C42.2368 31.8975 42.2107 31.8617 42.1928 31.8217C42.1749 31.7817 42.1656 31.7384 42.1654 31.6946L42.0957 30.9841C42.0917 30.9549 42.0767 30.9284 42.0538 30.91C42.0308 30.8915 42.0017 30.8826 41.9724 30.8849H40.0689C40.0484 30.8839 40.028 30.889 40.0104 30.8995C39.9927 30.91 39.9786 30.9254 39.9697 30.9439L39.6131 31.7938C39.5863 31.8596 39.5396 31.9155 39.4795 31.9535C39.4194 31.9915 39.3489 32.0097 39.278 32.0056L38.2243 31.9949ZM41.8062 29.4157C41.8705 29.4157 41.9456 29.346 41.9295 29.2816L41.7177 27.7052C41.6775 27.3835 41.64 27.2253 41.5997 27.2306C41.5595 27.236 41.4818 27.3781 41.3719 27.6516L40.6748 29.2227C40.6628 29.2431 40.6568 29.2665 40.6572 29.2901C40.6577 29.3138 40.6647 29.3369 40.6774 29.3569C40.6902 29.3768 40.7082 29.3929 40.7295 29.4033C40.7508 29.4136 40.7745 29.4179 40.7981 29.4157H41.8062Z" fill="#00E600"/>
<path d="M49.2195 25.1825C49.2708 25.1802 49.3219 25.1897 49.3689 25.2101C49.416 25.2306 49.4578 25.2615 49.4911 25.3005C49.5245 25.3396 49.5485 25.3857 49.5613 25.4354C49.5742 25.4851 49.5756 25.537 49.5653 25.5873L49.4125 26.5257C49.4095 26.5641 49.3989 26.6015 49.3813 26.6359C49.3637 26.6702 49.3395 26.7007 49.3101 26.7256C49.2807 26.7505 49.2467 26.7693 49.2099 26.7811C49.1732 26.7928 49.1345 26.7971 49.0961 26.7938H47.6082C47.5813 26.7923 47.5549 26.8012 47.5344 26.8187C47.5139 26.8361 47.501 26.8608 47.4982 26.8876L46.7368 31.7269C46.7307 31.8035 46.6946 31.8746 46.6364 31.9248C46.5781 31.975 46.5025 32.0002 46.4258 31.995H45.3534C45.3018 31.9984 45.2502 31.9896 45.2026 31.9695C45.155 31.9494 45.1127 31.9185 45.0791 31.8792C45.0455 31.8399 45.0216 31.7933 45.0092 31.7431C44.9967 31.693 44.9962 31.6406 45.0076 31.5902L45.7502 26.9439C45.7526 26.9254 45.7509 26.9065 45.7452 26.8887C45.7394 26.8709 45.7298 26.8546 45.7169 26.841C45.7041 26.8274 45.6884 26.8169 45.671 26.8101C45.6535 26.8033 45.6348 26.8005 45.6162 26.8018H44.3319C44.2814 26.8058 44.2307 26.7979 44.1838 26.7789C44.1369 26.7599 44.095 26.7302 44.0615 26.6923C44.0279 26.6544 44.0037 26.6091 43.9906 26.5602C43.9775 26.5113 43.976 26.46 43.9861 26.4104L44.1389 25.4479C44.1387 25.4106 44.1464 25.3736 44.1614 25.3394C44.1763 25.3052 44.1982 25.2745 44.2258 25.2493C44.2533 25.224 44.2857 25.2048 44.3211 25.1928C44.3565 25.1809 44.394 25.1764 44.4311 25.1798L49.2195 25.1825Z" fill="#00E600"/>
<path d="M49.2463 31.9949C49.1953 31.9969 49.1446 31.9871 49.0979 31.9665C49.0513 31.9458 49.0099 31.9148 48.9771 31.8758C48.9442 31.8367 48.9208 31.7907 48.9084 31.7412C48.8961 31.6917 48.8952 31.64 48.9058 31.5901L49.8737 25.4505C49.8767 25.4121 49.8873 25.3746 49.9049 25.3403C49.9225 25.306 49.9467 25.2755 49.9761 25.2506C50.0055 25.2257 50.0395 25.2068 50.0762 25.1951C50.113 25.1834 50.1516 25.1791 50.19 25.1824H51.2812C51.3324 25.1789 51.3836 25.1877 51.4306 25.208C51.4777 25.2283 51.5192 25.2596 51.5517 25.2992C51.5842 25.3388 51.6068 25.3856 51.6176 25.4357C51.6284 25.4858 51.627 25.5378 51.6137 25.5872L50.6458 31.7215C50.6465 31.7611 50.6383 31.8004 50.6219 31.8366C50.6055 31.8727 50.5813 31.9047 50.5511 31.9304C50.5208 31.956 50.4852 31.9746 50.4469 31.9849C50.4086 31.9951 50.3685 31.9967 50.3295 31.9896H49.257L49.2463 31.9949Z" fill="#00E600"/>
<path d="M51.8147 31.9949C51.7637 31.9969 51.7129 31.9871 51.6663 31.9665C51.6196 31.9458 51.5783 31.9148 51.5454 31.8758C51.5126 31.8367 51.4891 31.7907 51.4768 31.7412C51.4644 31.6917 51.4635 31.64 51.4742 31.5901L52.442 25.4505C52.4451 25.4121 52.4557 25.3746 52.4733 25.3403C52.4908 25.306 52.515 25.2755 52.5444 25.2506C52.5738 25.2257 52.6079 25.2068 52.6446 25.1951C52.6813 25.1834 52.72 25.1791 52.7584 25.1824H55.359C56.1258 25.1824 56.6942 25.3245 57.0641 25.6087C57.4341 25.8929 57.6164 26.3647 57.6164 27.0216C57.6164 28.321 57.1571 29.1825 56.2384 29.6061C56.212 29.619 56.1913 29.6412 56.1804 29.6684C56.1695 29.6957 56.1691 29.7261 56.1794 29.7536L56.8363 31.4775C56.8635 31.534 56.8755 31.5966 56.8711 31.6591C56.8666 31.7217 56.8459 31.782 56.8109 31.834C56.776 31.8861 56.728 31.9281 56.6717 31.9558C56.6155 31.9836 56.553 31.9962 56.4904 31.9923H55.3081C55.2482 31.9946 55.1893 31.9769 55.1408 31.9419C55.0922 31.907 55.0567 31.8567 55.04 31.7992L54.3375 30.0297C54.3312 30.0082 54.3182 29.9894 54.3003 29.9758C54.2825 29.9623 54.2607 29.9549 54.2383 29.9547C54.1847 29.9547 54.0962 29.9547 53.9702 29.9547H53.5466C53.5186 29.9516 53.4905 29.9598 53.4684 29.9774C53.4463 29.9949 53.432 30.0205 53.4287 30.0485L53.1874 31.7188C53.185 31.7565 53.1752 31.7933 53.1585 31.8272C53.1418 31.8611 53.1186 31.8914 53.0902 31.9163C53.0618 31.9412 53.0288 31.9603 52.993 31.9724C52.9572 31.9845 52.9194 31.9894 52.8817 31.9869L51.8147 31.9949ZM54.6137 28.4533C55.4448 28.4533 55.8577 28.0967 55.855 27.3809C55.855 26.9304 55.6271 26.8018 55.0158 26.8018H54.0373C54.0099 26.7995 53.9828 26.8081 53.9618 26.8256C53.9407 26.8432 53.9274 26.8683 53.9246 26.8956L53.7021 28.3031C53.686 28.397 53.7316 28.4426 53.8362 28.4426L54.6137 28.4533Z" fill="#00E600"/>
<path d="M57.6965 31.9949C57.6455 31.9969 57.5948 31.9871 57.5481 31.9665C57.5015 31.9458 57.4601 31.9148 57.4273 31.8758C57.3944 31.8367 57.371 31.7907 57.3586 31.7412C57.3463 31.6917 57.3454 31.64 57.356 31.5901L58.3131 25.4505C58.3162 25.4121 58.3268 25.3746 58.3444 25.3403C58.3619 25.306 58.3861 25.2755 58.4155 25.2506C58.4449 25.2257 58.479 25.2068 58.5157 25.1951C58.5524 25.1834 58.5911 25.1791 58.6295 25.1824H59.7207C59.7718 25.1789 59.823 25.1877 59.8701 25.208C59.9171 25.2283 59.9586 25.2596 59.9912 25.2992C60.0237 25.3388 60.0463 25.3856 60.0571 25.4357C60.0678 25.4858 60.0665 25.5378 60.0531 25.5872L59.0853 31.7215C59.0859 31.7611 59.0778 31.8004 59.0614 31.8366C59.045 31.8727 59.0208 31.9047 58.9906 31.9304C58.9603 31.956 58.9247 31.9746 58.8864 31.9849C58.8481 31.9951 58.8079 31.9967 58.7689 31.9896H57.6965V31.9949Z" fill="#00E600"/>
<path d="M67.939 25.1824C67.9899 25.1795 68.0409 25.1887 68.0876 25.2092C68.1344 25.2297 68.1756 25.261 68.208 25.3004C68.2404 25.3399 68.263 25.3864 68.274 25.4362C68.2851 25.4861 68.2842 25.5378 68.2714 25.5872L67.3116 31.7215C67.3086 31.7599 67.298 31.7973 67.2804 31.8316C67.2628 31.8659 67.2386 31.8964 67.2092 31.9214C67.1798 31.9463 67.1458 31.9651 67.1091 31.9768C67.0723 31.9885 67.0337 31.9929 66.9953 31.9896H66.0274C65.9758 31.9929 65.9242 31.9842 65.8766 31.9641C65.8289 31.944 65.7867 31.9131 65.7531 31.8738C65.7195 31.8345 65.6956 31.7879 65.6831 31.7377C65.6707 31.6875 65.6702 31.6352 65.6815 31.5847L66.0274 29.4399C66.1454 28.767 65.9336 28.7482 65.6118 29.2764L64.4 31.1263C64.3776 31.1672 64.3434 31.2004 64.3017 31.2215C64.2601 31.2426 64.213 31.2505 64.1668 31.2442H63.2659C63.2068 31.247 63.1484 31.23 63.0999 31.1961C63.0514 31.1621 63.0155 31.1131 62.9978 31.0566L62.341 29.1638C62.1587 28.6275 62.0058 28.6275 61.9254 29.204L61.5393 31.7241C61.5396 31.7622 61.5318 31.7999 61.5163 31.8348C61.5009 31.8696 61.4782 31.9007 61.4498 31.9261C61.4214 31.9514 61.3879 31.9705 61.3516 31.9819C61.3152 31.9933 61.2769 31.9968 61.2391 31.9923H60.2658C60.2149 31.9942 60.1641 31.9845 60.1174 31.9638C60.0708 31.9432 60.0295 31.9121 59.9966 31.8731C59.9638 31.834 59.9403 31.788 59.9279 31.7385C59.9156 31.689 59.9147 31.6373 59.9254 31.5874L60.8825 25.4505C60.8855 25.4121 60.8961 25.3746 60.9137 25.3403C60.9313 25.306 60.9555 25.2755 60.9849 25.2506C61.0143 25.2257 61.0483 25.2068 61.085 25.1951C61.1218 25.1834 61.1604 25.1791 61.1988 25.1824H62.5528C62.6165 25.1792 62.6795 25.1976 62.7315 25.2346C62.7836 25.2715 62.8217 25.3249 62.8396 25.3862L63.9121 28.5444C64.0059 28.8125 64.0354 28.842 64.1936 28.5739L66.3384 25.3111C66.3634 25.27 66.399 25.2363 66.4414 25.2137C66.4839 25.191 66.5316 25.1802 66.5797 25.1824H67.939Z" fill="#00E600"/>
<path d="M33.5673 39.5663C33.1758 39.0301 33.0632 38.266 33.2161 37.2874L33.7952 33.6546C33.8013 33.578 33.8374 33.5069 33.8956 33.4567C33.9539 33.4065 34.0295 33.3813 34.1062 33.3865H35.1974C35.2485 33.3832 35.2998 33.392 35.3469 33.4123C35.394 33.4327 35.4356 33.4639 35.4683 33.5034C35.501 33.5429 35.5239 33.5896 35.535 33.6396C35.5462 33.6897 35.5453 33.7417 35.5325 33.7913L34.9453 37.4831C34.8166 38.3268 35.0937 38.7486 35.7765 38.7486C36.5808 38.7486 37.0526 38.3143 37.184 37.4429L37.7926 33.6466C37.7921 33.6074 37.8002 33.5687 37.8162 33.533C37.8323 33.4973 37.856 33.4656 37.8856 33.44C37.9153 33.4145 37.9501 33.3957 37.9878 33.3851C38.0254 33.3745 38.065 33.3722 38.1036 33.3785H39.176C39.2276 33.3751 39.2792 33.3838 39.3269 33.4039C39.3745 33.424 39.4168 33.455 39.4503 33.4943C39.4839 33.5336 39.5078 33.5801 39.5203 33.6303C39.5327 33.6805 39.5332 33.7329 39.5219 33.7833L38.9562 37.4349C38.8087 38.3947 38.4709 39.1212 37.9481 39.6199C37.4253 40.1186 36.6585 40.3706 35.6558 40.3706C34.6531 40.3706 33.9641 40.1052 33.5673 39.5663Z" fill="#00E600"/>
<path d="M44.7853 33.3945C44.8356 33.3913 44.886 33.3999 44.9325 33.4194C44.979 33.4389 45.0203 33.469 45.0533 33.5071C45.0863 33.5453 45.11 33.5905 45.1226 33.6394C45.1351 33.6882 45.1362 33.7393 45.1258 33.7886L45.0078 34.5259C44.9975 34.6265 44.9722 34.725 44.9328 34.8181C44.8632 34.9281 44.7823 35.0305 44.6915 35.1238L41.7155 38.3196C41.5466 38.5019 41.5868 38.5877 41.8389 38.5877H44.0239C44.0751 38.5844 44.1263 38.5932 44.1734 38.6135C44.2205 38.6338 44.2621 38.665 44.2948 38.7045C44.3275 38.744 44.3504 38.7907 44.3616 38.8408C44.3727 38.8909 44.3719 38.9429 44.359 38.9925L44.2169 39.947C44.2108 40.0236 44.1747 40.0947 44.1165 40.1448C44.0583 40.195 43.9826 40.2203 43.9059 40.2151H39.198C39.1459 40.2174 39.094 40.2076 39.0463 40.1864C38.9987 40.1651 38.9566 40.133 38.9236 40.0927C38.8905 40.0523 38.8673 40.0048 38.8558 39.9539C38.8444 39.903 38.845 39.8501 38.8575 39.7995L38.9567 39.1614C38.9648 39.04 38.9948 38.921 39.0452 38.8102C39.1097 38.7038 39.1891 38.6071 39.2811 38.5233L42.2946 35.3061C42.4367 35.1667 42.5279 35.038 42.2008 35.0192H39.9568C39.9056 35.0225 39.8543 35.0137 39.8072 34.9934C39.7602 34.9731 39.7185 34.9419 39.6858 34.9024C39.6531 34.8628 39.6303 34.8161 39.6191 34.7661C39.6079 34.716 39.6088 34.664 39.6216 34.6144L39.7664 33.6653C39.7726 33.5887 39.8087 33.5176 39.8669 33.4674C39.9251 33.4172 40.0007 33.392 40.0774 33.3972H44.796L44.7853 33.3945Z" fill="#00E600"/>
<path d="M52.5598 33.3945C52.6108 33.3916 52.6617 33.4008 52.7085 33.4213C52.7552 33.4418 52.7964 33.4731 52.8288 33.5125C52.8612 33.552 52.8839 33.5985 52.8949 33.6483C52.9059 33.6982 52.905 33.7499 52.8923 33.7993L51.9325 39.9282C51.9294 39.9666 51.9188 40.0041 51.9012 40.0384C51.8837 40.0727 51.8595 40.1032 51.8301 40.1281C51.8007 40.153 51.7666 40.1719 51.7299 40.1836C51.6932 40.1953 51.6545 40.1996 51.6161 40.1963H50.6482C50.5967 40.1997 50.545 40.1909 50.4974 40.1708C50.4498 40.1507 50.4075 40.1198 50.3739 40.0805C50.3404 40.0412 50.3164 39.9946 50.304 39.9444C50.2916 39.8943 50.291 39.8419 50.3024 39.7915L50.6482 37.6466C50.7662 36.9737 50.5544 36.9549 50.2327 37.4831L49.0182 39.3169C48.9958 39.3579 48.9615 39.3911 48.9199 39.4122C48.8782 39.4332 48.8312 39.4411 48.7849 39.4349H47.8841C47.825 39.4376 47.7666 39.4207 47.7181 39.3867C47.6696 39.3528 47.6337 39.3037 47.616 39.2472L46.9591 37.3544C46.7768 36.8182 46.624 36.8182 46.5436 37.3946L46.1575 39.9148C46.1578 39.9529 46.1499 39.9906 46.1345 40.0254C46.1191 40.0602 46.0964 40.0914 46.068 40.1167C46.0396 40.1421 46.0061 40.1611 45.9697 40.1725C45.9334 40.1839 45.895 40.1875 45.8572 40.1829H44.884C44.833 40.1848 44.7823 40.1751 44.7356 40.1545C44.689 40.1338 44.6476 40.1028 44.6148 40.0637C44.5819 40.0247 44.5585 39.9786 44.5461 39.9291C44.5337 39.8796 44.5329 39.828 44.5435 39.7781L45.5114 33.6358C45.5144 33.5974 45.525 33.5599 45.5426 33.5256C45.5602 33.4913 45.5844 33.4608 45.6138 33.4359C45.6432 33.411 45.6772 33.3921 45.7139 33.3804C45.7507 33.3687 45.7893 33.3644 45.8277 33.3677H47.1817C47.2454 33.3645 47.3084 33.3829 47.3604 33.4198C47.4125 33.4568 47.4505 33.5102 47.4685 33.5715L48.5409 36.7297C48.6348 36.9978 48.6643 37.0273 48.8225 36.7592L50.9673 33.4964C50.9923 33.4553 51.0278 33.4216 51.0703 33.399C51.1127 33.3763 51.1605 33.3655 51.2086 33.3677L52.5598 33.3945Z" fill="#00E600"/>
<path d="M52.697 40.1964C52.6322 40.2002 52.5676 40.1868 52.5098 40.1573C52.4519 40.1279 52.403 40.0836 52.3681 40.029C52.3331 39.9743 52.3133 39.9113 52.3108 39.8465C52.3083 39.7817 52.3231 39.7173 52.3538 39.6602L55.1662 33.5608C55.1862 33.5068 55.2231 33.4607 55.2714 33.4293C55.3197 33.3979 55.3768 33.3829 55.4343 33.3865H57.2467C57.3226 33.3846 57.3964 33.411 57.4539 33.4606C57.5114 33.5101 57.5484 33.5793 57.5577 33.6546L58.4612 39.821C58.4698 39.8702 58.4672 39.9207 58.4535 39.9686C58.4397 40.0166 58.4153 40.0609 58.382 40.098C58.3487 40.1352 58.3074 40.1643 58.2612 40.1832C58.215 40.2021 58.1652 40.2103 58.1153 40.2071H56.9839C56.9404 40.2116 56.8963 40.2069 56.8546 40.1933C56.813 40.1798 56.7746 40.1576 56.742 40.1283C56.7095 40.099 56.6834 40.0632 56.6655 40.0232C56.6476 39.9832 56.6382 39.9399 56.6381 39.8961L56.5684 39.1856C56.5644 39.1565 56.5494 39.13 56.5264 39.1115C56.5035 39.0931 56.4744 39.0841 56.4451 39.0864H54.5415C54.521 39.0854 54.5007 39.0905 54.483 39.101C54.4654 39.1115 54.4512 39.1269 54.4423 39.1454L54.0857 39.9953C54.059 40.0612 54.0123 40.117 53.9522 40.155C53.8921 40.193 53.8216 40.2112 53.7506 40.2071L52.697 40.1964ZM56.2815 37.6172C56.3459 37.6172 56.4209 37.5475 56.4048 37.4832L56.193 35.9067C56.1528 35.585 56.1153 35.4268 56.0751 35.4322C56.0349 35.4375 55.9571 35.5796 55.8472 35.8531L55.1501 37.4242C55.1382 37.4446 55.1321 37.468 55.1326 37.4917C55.133 37.5153 55.14 37.5384 55.1528 37.5584C55.1655 37.5783 55.1835 37.5944 55.2048 37.6048C55.2261 37.6152 55.2499 37.6195 55.2734 37.6172H56.2815Z" fill="#00E600"/>
<path d="M65.0567 33.3945C65.1069 33.3911 65.1572 33.3995 65.2035 33.4191C65.2499 33.4386 65.291 33.4688 65.3236 33.5071C65.3562 33.5454 65.3794 33.5909 65.3912 33.6398C65.403 33.6887 65.4033 33.7396 65.3918 33.7886L64.4374 39.9282C64.4279 40.0075 64.3879 40.0799 64.3257 40.13C64.2636 40.1801 64.1844 40.2039 64.1049 40.1963H62.9199C62.8547 40.1985 62.7906 40.1799 62.7366 40.1433C62.6827 40.1067 62.6417 40.0539 62.6196 39.9926L61.2308 37.0434C61.0432 36.6037 60.9198 36.6225 60.8555 37.0917L60.4212 39.9282C60.4191 39.9656 60.4097 40.0021 60.3935 40.0358C60.3773 40.0695 60.3546 40.0997 60.3267 40.1246C60.2988 40.1495 60.2663 40.1687 60.2309 40.181C60.1956 40.1933 60.1582 40.1985 60.1209 40.1963H59.1477C59.0967 40.1983 59.0459 40.1885 58.9993 40.1679C58.9526 40.1472 58.9113 40.1162 58.8785 40.0772C58.8456 40.0381 58.8221 39.9921 58.8098 39.9426C58.7974 39.8931 58.7965 39.8414 58.8072 39.7915L59.775 33.6573C59.7781 33.6188 59.7887 33.5814 59.8063 33.5471C59.8238 33.5128 59.848 33.4823 59.8774 33.4574C59.9068 33.4325 59.9409 33.4136 59.9776 33.4019C60.0143 33.3902 60.053 33.3859 60.0914 33.3892H61.3274C61.3858 33.3861 61.4437 33.4023 61.4921 33.4352C61.5405 33.4681 61.5768 33.516 61.5955 33.5715L62.9896 36.5206C63.1934 36.9791 63.3006 36.9657 63.365 36.467L63.7886 33.6653C63.7879 33.6257 63.7961 33.5863 63.8125 33.5502C63.8288 33.5141 63.853 33.482 63.8833 33.4564C63.9136 33.4307 63.9491 33.4121 63.9875 33.4019C64.0258 33.3917 64.0659 33.3901 64.1049 33.3972L65.0567 33.3945Z" fill="#00E600"/>
<path d="M65.6057 40.1963C65.5547 40.1983 65.5039 40.1885 65.4573 40.1679C65.4106 40.1472 65.3693 40.1162 65.3365 40.0772C65.3036 40.0381 65.2801 39.9921 65.2678 39.9426C65.2554 39.8931 65.2545 39.8414 65.2652 39.7915L66.233 33.6573C66.2361 33.6188 66.2467 33.5814 66.2643 33.5471C66.2818 33.5128 66.306 33.4823 66.3354 33.4574C66.3648 33.4325 66.3989 33.4136 66.4356 33.4019C66.4723 33.3902 66.511 33.3859 66.5494 33.3892H67.6406C67.6917 33.3857 67.7429 33.3945 67.79 33.4148C67.837 33.4351 67.8785 33.4664 67.9111 33.506C67.9436 33.5456 67.9662 33.5924 67.977 33.6425C67.9877 33.6926 67.9864 33.7445 67.973 33.794L67.0052 39.9282C67.0058 39.9679 66.9977 40.0072 66.9813 40.0433C66.9649 40.0795 66.9407 40.1115 66.9105 40.1371C66.8802 40.1628 66.8446 40.1814 66.8063 40.1916C66.768 40.2019 66.7278 40.2035 66.6888 40.1963H65.6057Z" fill="#00E600"/>
<path d="M30.4709 17.2144L17.2936 8.19533C17.0767 8.04473 16.819 7.96402 16.555 7.96402C16.2909 7.96402 16.0332 8.04473 15.8164 8.19533L2.6444 17.2144C2.46975 17.3338 2.32659 17.4937 2.22714 17.6804C2.1277 17.8672 2.07493 18.0752 2.07334 18.2868V38.8691C2.07121 39.0424 2.10347 39.2144 2.16823 39.3752C2.233 39.5359 2.32899 39.6822 2.45066 39.8056C2.57232 39.929 2.71725 40.0271 2.87706 40.0942C3.03687 40.1612 3.20839 40.1959 3.38169 40.1962H6.03592V37.5688H4.6954V18.9838L16.559 10.8603L28.428 18.9838V37.5661H27.0875V40.1962H29.7417C30.0885 40.1955 30.4208 40.0575 30.666 39.8123C30.9113 39.567 31.0493 39.2347 31.05 38.8879V18.2921C31.0484 18.0789 30.9948 17.8694 30.8939 17.6815C30.793 17.4937 30.6478 17.3334 30.4709 17.2144Z" fill="#221F20"/>
<path d="M10.5078 27.4157H7.00098V40.1855H10.5078V27.4157Z" fill="#00E600"/>
<path d="M15.709 24.5202H12.2021V40.1856H15.709V24.5202Z" fill="#00E600"/>
<path d="M20.9101 21.6219H17.4033V40.1854H20.9101V21.6219Z" fill="#00E600"/>
<path d="M22.6047 40.1855V6.01299L20.5537 8.06398V4.83333L24.3581 1.02893L28.1652 4.83333V8.06398L26.1142 6.01299V40.1855H22.6047Z" stroke="white" stroke-width="1.02148" stroke-miterlimit="10"/>
<path d="M22.6047 40.1855V6.01299L20.5537 8.06398V4.83333L24.3581 1.02893L28.1652 4.83333V8.06398L26.1142 6.01299V40.1855H22.6047Z" fill="#00E600"/>
</g>
<defs>
<clipPath id="clip0_55_2763">
<rect width="66.2029" height="40.3899" fill="white" transform="translate(2.07324 0.305054)"/>
</clipPath>
</defs>
</svg>
