<svg version="1.2" xmlns="http://www.w3.org/2000/svg" viewBox="0 0 36 38" width="36" height="38">
	<title>plot-world-svg</title>
	<style>
		.s0 { fill: #58b847 } 
		.s1 { fill: none;stroke: #58b847;stroke-width: 3 } 
	</style>
	<path id="Layer" class="s0" d="m36 20.9c0.1 0.5-0.1 1-0.5 1.3l-4.2 3.6 2.8 6.3c0.2 0.4 0.2 0.9 0 1.3-0.2 0.4-0.6 0.7-1.1 0.8l-14.4 3c-0.1 0-0.2 0-0.3 0q-0.4 0-0.7-0.2l-16.8-9.2c-0.7-0.3-1-1.2-0.7-2l3.6-7.8c0.2-0.4 0.6-0.7 1.1-0.8l1.7-0.4c1.1-0.3 2.7-0.6 3.2 0.4 0.6 1.1-0.8 2.3-2 2.5l-1.6 0.4-2.6 5.7 15 8.3 12-2.5-2.5-5.5c-0.2-0.6-0.1-1.4 0.4-1.8l3.3-2.9-2.5-1.3c-1-0.5-2.1-1.5-1.6-2.5 0.5-1 1.9-0.8 2.9-0.2l4.6 2.3c0.5 0.3 0.8 0.7 0.9 1.2z"/>
	<path id="Layer" class="s1" d="m26.5 9.6q0 4.5-6.9 10.5c-0.3 0.3-0.8 0.3-1.2 0q-6.8-6-6.8-10.5c0-4.6 3.5-7.6 7.4-7.6 3.9 0 7.5 3 7.5 7.6z"/>
	<circle id="Layer" class="s0" cx="19.1" cy="10.2" r="2.1"/>
</svg>