<svg version="1.2" xmlns="http://www.w3.org/2000/svg" viewBox="0 0 31 38" width="31" height="38">
	<title>yakınında ara_desktop-svg</title>
	<style>
		.s0 { fill: #58b847 } 
	</style>
	<path id="Layer" fill-rule="evenodd" class="s0" d="m17.6 36.5v0.1c-1.2 1-3 1-4.2 0l1-1.2-1 1.2v-0.1q-6.3-5.6-9.6-10.7c-2.1-3.3-3.3-6.6-3.3-9.7 0-9.4 7.1-15.6 15-15.6 7.9 0 15 6.2 15 15.6 0 3.1-1.2 6.4-3.3 9.7q-3.3 5.1-9.6 10.7l-1-1.1zm-2-2.2q6.1-5.5 9-10.1c2-3.1 2.9-5.8 2.9-8.1 0-7.7-5.7-12.6-12-12.6-6.3 0-12 4.9-12 12.6 0 2.3 0.9 5 2.9 8.1q2.9 4.6 9 10.1c0.1 0.1 0.2 0.1 0.2 0zm-0.1-16.6c1 0 1.9-0.9 1.9-2 0-1-0.9-1.9-1.9-1.9v-3c2.7 0 4.9 2.3 4.9 4.9 0 2.7-2.2 5-4.9 5-2.7 0-4.9-2.3-4.9-5h3c0 1.1 0.9 2 1.9 2zm-4.9-2h3c0-1 0.9-1.9 1.9-1.9v-3c-2.7 0-4.9 2.3-4.9 4.9z"/>
</svg>