<svg version="1.2" xmlns="http://www.w3.org/2000/svg" viewBox="0 0 35 35" width="35" height="35">
	<title>haritada ara_desktop-svg</title>
	<style>
		.s0 { fill: #58b847 } 
		.s1 { fill: #ffffff } 
	</style>
	<path id="Layer" fill-rule="evenodd" class="s0" d="m12 33.6l-9.1-4.9c-0.6-0.3-1.1-0.8-1.4-1.3-0.3-0.6-0.5-1.3-0.5-2v-20.7c0-1.3 0.6-2.5 1.6-3.2 1-0.6 2.3-0.7 3.3-0.1l7.5 4 6.4-3.9c1-0.6 2.2-0.7 3.2-0.1l9.1 4.9c0.6 0.3 1.1 0.7 1.4 1.3 0.3 0.6 0.5 1.3 0.5 2v20.7c0 1.3-0.6 2.5-1.6 3.1-1 0.7-2.3 0.8-3.3 0.2l-7.5-4-6.4 3.9c-1 0.6-2.2 0.7-3.2 0.1zm12.3-6.6l6.3 3.3v-20.7l-6.3-3.4zm-10.2-17.8v20.8l6.8-4.2v-20.8zm-9.7-4.5v20.8l6.3 3.3v-20.7z"/>
	<path id="Layer" fill-rule="evenodd" class="s1" d="m1.8 27.2c-0.3-0.5-0.5-1.1-0.5-1.8h-0.4 0.1 0.3v-20.7c0-1.2 0.6-2.3 1.5-2.9 0.9-0.6 2-0.7 3-0.1l7.5 4h0.1 0.2l6.3-4-0.1-0.2 0.1 0.1-0.1-0.1 0.1 0.2c0.9-0.5 2-0.5 3 0l9.1 4.8 0.1-0.1 0.1-0.3-0.2 0.4c0.5 0.3 0.9 0.7 1.2 1.3 0.3 0.5 0.5 1.1 0.5 1.8v20.7c0 1.2-0.6 2.3-1.5 2.9-0.9 0.6-2 0.7-3 0.2h0.2v0.2h-0.3l0.1-0.3q0 0.1 0 0.1v-0.1l-7.5-4-0.1 0.3 0.1-0.3h-0.1-0.2l-6.3 4 0.1 0.2-0.1-0.2c-0.9 0.5-2 0.5-3 0l-0.1 0.3 0.1-0.3-8.9-4.8h-0.2c-0.5-0.3-0.9-0.7-1.2-1.3zm10.3 6.1l-0.1 0.3zm-0.3 0.5l-9.1-4.9q-0.1 0-0.1-0.1l0.1 0.1 0.2-0.2h-0.3v0.1q-0.9-0.5-1.4-1.3c-0.3-0.7-0.5-1.4-0.5-2.1v-20.8c0-1.4 0.6-2.6 1.7-3.4 1.1-0.7 2.5-0.8 3.6-0.1h0.1l-0.2 0.2 0.2-0.2 7.3 3.9 6.2-3.8c1.1-0.7 2.4-0.7 3.5-0.1l-0.2 0.3 0.1-0.1 0.1-0.2 9.1 4.9c0.6 0.3 1.2 0.8 1.5 1.4l-0.2 0.2 0.2-0.2c0.4 0.6 0.6 1.4 0.6 2.1v20.8h-0.3-0.1 0.4c0 1.3-0.7 2.6-1.8 3.3l-0.2-0.2 0.2 0.2c-1.1 0.8-2.5 0.8-3.6 0.2l0.1-0.3-0.1 0.3-0.2-0.1-7.1-3.8-6.2 3.8c-1.1 0.7-2.5 0.7-3.6 0.1zm-9-5.1h0.1zm28 2l-0.5-0.2-6.2-3.4h-0.2v-21.5l0.5 0.2 6.2 3.4 0.2 0.1zm-0.6-1v-20.1l-5.7-3v20zm-9.1-3.8l-0.1 0.1-0.2-0.3 0.2 0.3-6.8 4.2-0.5 0.2v-21.4l0.2-0.1 6.8-4.2 0.1 0.2-0.1-0.2 0.4-0.3zm-6.8 3.5l6.2-3.8v-20.1l-6.2 3.8zm-10.3-25.3l0.5 0.3-0.2 0.2 0.2-0.2 6.2 3.3 0.2 0.1v21.5l-0.4-0.3-6.3-3.3-0.2-0.1zm0.6 21.1l5.7 3v-20.1l-5.7-3zm15.3-23.5l-0.1-0.2 0.1 0.2zm-17.4-0.2l-0.1-0.3zm29.7 31.9l0.2 0.3z"/>
</svg>