<svg xmlns="http://www.w3.org/2000/svg" width="45" height="34" viewBox="0 0 45 34">
    <g fill="none" fill-rule="evenodd">
        <path fill="#FF5A60" d="M4.886 15.574c0-8.108 7.958-18.399 16.24-13.191 2.707 1.702 4.975 11.02 6.96 11.489 8.123 1.919 14.685 2.928 14.685 9.442 0 8.108-6.566 7.152-17.778 7.152S4.886 23.681 4.886 15.574zM32.742 5.197a2.48 2.48 0 0 1 3.345-1.05c.434.226.835.362 1.204.408.335.04.723.048 1.165.022a3.114 3.114 0 0 1 3.217 3.814 3.686 3.686 0 0 1-5.11 2.52c-.425-.192-.746-.314-.964-.366l-.198-.053a4.109 4.109 0 0 1-2.942-4.202l.007-.103a2.48 2.48 0 0 1 .276-.99z"/>
        <path fill="#FFF" stroke="#000" stroke-linejoin="round" stroke-width=".5" d="M14.35 1.91h12.401v30.614H14.35z"/>
        <path fill="#FFF" stroke="#000" stroke-linejoin="round" stroke-width=".5" d="M16.3 4.857h3.4v4.857h-3.4zM16.3 11.657h3.4v4.857h-3.4zM16.3 18.457h3.4v4.857h-3.4zM21.4 4.857h3.4v4.857h-3.4z"/>
        <path fill="#FFF" stroke="#000" stroke-linecap="round" stroke-linejoin="round" stroke-width=".5" d="M18.486 32.543V24.77h1.943"/>
        <g fill="#FFF" stroke="#000" stroke-width=".5">
            <path stroke-linejoin="round" d="M22.121 12.573h13.13v20.9H22.12z"/>
            <path d="M24.564 15.793h3.386v3.386h-3.386zM29.907 15.793h3.386v3.386h-3.386zM24.564 20.844h3.386v3.386h-3.386zM29.907 20.844h3.386v3.386h-3.386z"/>
        </g>
        <path fill="#FFF" stroke="#000" stroke-linejoin="round" stroke-width=".5" d="M26.743 26.714h3.886v6.8h-3.886z"/>
        <path fill="#FFF" stroke="#000" stroke-linecap="round" stroke-linejoin="round" stroke-width=".5" d="M38.497 0v7.577h-2.526l4.21 5.052 4.21-5.052h-2.526V0M2.943 15.543V20.4H1l3.238 3.886L7.476 20.4H5.533v-4.857"/>
    </g>
</svg>
