<svg width="45" height="44" viewBox="0 0 45 44" fill="none" xmlns="http://www.w3.org/2000/svg">
<ellipse cx="22.499" cy="22.449" rx="21.5051" ry="21.551" fill="white"/>
<g clip-path="url(#clip0_310_1221)">
<path d="M27.2224 21.7202C27.1366 21.679 27.0495 21.6394 26.9612 21.6014C26.8075 18.7629 25.2598 17.1379 22.6611 17.1213C22.6493 17.1212 22.6376 17.1212 22.6258 17.1212C21.0715 17.1212 19.7787 17.7861 18.983 18.996L20.4122 19.9786C21.0066 19.0748 21.9395 18.8821 22.6265 18.8821C22.6345 18.8821 22.6424 18.8821 22.6503 18.8822C23.5059 18.8877 24.1516 19.137 24.5695 19.6232C24.8737 19.9772 25.0771 20.4663 25.1778 21.0836C24.4191 20.9544 23.5987 20.9147 22.7216 20.9651C20.2508 21.1077 18.6624 22.5518 18.7691 24.5584C18.8232 25.5762 19.3292 26.4518 20.1938 27.0239C20.9248 27.5074 21.8663 27.7439 22.8447 27.6904C24.1369 27.6194 25.1506 27.1253 25.8578 26.2219C26.3949 25.5359 26.7346 24.6468 26.8846 23.5266C27.5004 23.899 27.9568 24.3891 28.2088 24.9783C28.6374 25.9798 28.6624 27.6256 27.3224 28.9673C26.1483 30.1428 24.7371 30.6513 22.6042 30.667C20.2383 30.6494 18.449 29.889 17.2857 28.407C16.1963 27.0192 15.6333 25.0147 15.6123 22.4491C15.6333 19.8834 16.1963 17.8789 17.2857 16.4911C18.449 15.0091 20.2383 14.2487 22.6042 14.2311C24.9872 14.2489 26.8077 15.0129 28.0156 16.5021C28.6079 17.2324 29.0544 18.1508 29.3488 19.2216L31.0236 18.7738C30.6668 17.4557 30.1054 16.3199 29.3413 15.378C27.7928 13.4688 25.5281 12.4905 22.61 12.4702H22.5983C19.6862 12.4904 17.4468 13.4724 15.9424 15.389C14.6037 17.0944 13.9132 19.4674 13.89 22.4421L13.8899 22.4491L13.89 22.4561C13.9132 25.4307 14.6037 27.8038 15.9424 29.5092C17.4468 31.4257 19.6862 32.4078 22.5983 32.4279H22.61C25.199 32.41 27.024 31.7307 28.5274 30.2254C30.4943 28.2561 30.4351 25.7877 29.7868 24.2724C29.3217 23.1857 28.435 22.3032 27.2224 21.7202ZM22.7522 25.932C21.6693 25.9931 20.5443 25.506 20.4888 24.4627C20.4477 23.6892 21.0382 22.826 22.8187 22.7232C23.0226 22.7114 23.2227 22.7056 23.4192 22.7056C24.066 22.7056 24.671 22.7686 25.221 22.8891C25.0159 25.4568 23.8124 25.8737 22.7522 25.932Z" fill="black"/>
</g>
<defs>
<clipPath id="clip0_310_1221">
<rect width="19.9152" height="19.9577" fill="white" transform="translate(12.5415 12.4702)"/>
</clipPath>
</defs>
</svg>
