<svg width="45" height="44" viewBox="0 0 45 44" fill="none" xmlns="http://www.w3.org/2000/svg">
<ellipse cx="22.5032" cy="21.551" rx="21.5051" ry="21.551" fill="white"/>
<mask id="mask0_310_1182" style="mask-type:luminance" maskUnits="userSpaceOnUse" x="0" y="0" width="45" height="44">
<ellipse cx="22.5032" cy="21.551" rx="21.5051" ry="21.551" fill="white"/>
</mask>
<g mask="url(#mask0_310_1182)">
<rect x="0.998047" width="43.0103" height="43.102" fill="white"/>
<path fill-rule="evenodd" clip-rule="evenodd" d="M32.3379 14.346C32.5174 13.607 31.6865 13.0402 31.0664 13.4786C30.4845 13.8899 29.8518 14.2224 29.1848 14.4681C27.9418 13.3534 26.1663 13.0092 24.579 13.6163C22.8239 14.2876 21.6704 15.9802 21.683 17.8606C19.3284 17.6836 17.1574 16.4605 15.7844 14.5013C15.4175 13.9777 14.621 14.0554 14.3617 14.64C14.2547 14.8813 14.1041 15.2926 13.9559 15.8386C13.466 17.6434 13.3803 19.5437 13.9675 21.3521C14.5362 23.1035 15.6955 24.5841 17.5059 25.7024C16.2589 26.278 14.8875 26.554 13.5022 26.4988C12.6377 26.4643 12.3144 27.6198 13.0706 28.0408C21.3169 32.6318 30.7184 27.6171 30.7184 17.8553C30.718 17.7203 30.7116 17.5861 30.6994 17.4528C31.4925 16.5709 32.0565 15.5037 32.3379 14.346ZM28.3409 15.9506C28.5529 16.1949 28.8882 16.292 29.1975 16.1986C29.3878 16.1412 29.576 16.0781 29.7621 16.0093C29.607 16.2123 29.4376 16.4051 29.2546 16.5859C29.0594 16.7788 28.9731 17.0566 29.0246 17.3265C29.058 17.5017 29.0751 17.6796 29.0757 17.8579C29.0757 25.2191 23.0066 29.4152 16.6992 27.7523C17.7541 27.4505 18.7613 26.9812 19.6805 26.3559C20.2135 25.9933 20.1415 25.1849 19.5527 24.9227C17.3587 23.9455 16.0857 22.5552 15.5296 20.8426C15.096 19.507 15.1197 18.0596 15.4442 16.6561C17.2889 18.5389 19.8477 19.5954 22.526 19.5258C22.9711 19.5143 23.326 19.1493 23.326 18.703V17.8799C23.3099 16.667 24.0443 15.5829 25.1648 15.1542C26.2854 14.7256 27.5538 15.0437 28.3409 15.9506Z" fill="#1DA1F2"/>
<ellipse cx="22.5032" cy="21.551" rx="21.5051" ry="21.551" fill="white"/>
<mask id="mask1_310_1182" style="mask-type:luminance" maskUnits="userSpaceOnUse" x="0" y="0" width="45" height="44">
<ellipse cx="22.5032" cy="21.551" rx="21.5051" ry="21.551" fill="white"/>
</mask>
<g mask="url(#mask1_310_1182)">
<rect x="0.998047" width="43.0103" height="43.102" fill="white"/>
<path d="M12.0491 12L20.157 22.8408L11.998 31.6549H13.8344L20.9778 23.9378L26.7491 31.6549H32.998L24.4338 20.2044L32.0282 12H30.1918L23.6134 19.107L18.298 12H12.0491ZM14.7497 13.3525H17.6204L30.2972 30.3023H27.4265L14.7497 13.3525Z" fill="black"/>
</g>
</g>
</svg>
